<?xml version="1.0" encoding="utf-8"?>
<svg xmlns="http://www.w3.org/2000/svg" xmlns:svg="http://www.w3.org/2000/svg" version="1.1" viewBox="0 0 2099 740">
  <title>Score for “Chelsea Buns.”</title>
  <path fill="none" stroke="#000" stroke-linejoin="bevel" stroke-width="2" d="M0 63.09h2098.77M0 88.09h2098.77M0 113.09h2098.77M0 138.09h2098.77M0 163.1h2098.77M0 538.12h2098.77M0 563.12h2098.77M0 588.12h2098.77M0 613.13h2098.77M0 638.13h2098.77"/>
  <path fill="none" stroke="#000" stroke-linejoin="bevel" stroke-width="4" d="M797.84 62.09V164.1M1484.17 62.09V164.1M2096.77 62.09V164.1M734.25 537.12v102.01M1441.12 537.12v102.01M2074.27 537.12v102.01"/>
  <path fill="none" stroke="#000" stroke-linejoin="bevel" stroke-width="12.5" d="M2092.52 537.12v102.01"/>
  <path fill="none" stroke="#000" stroke-linecap="square" stroke-linejoin="bevel" stroke-width="4" d="M1852.41 188.1h47.92"/>
  <path fill="none" stroke="#000" stroke-linecap="round" stroke-linejoin="bevel" stroke-width="3.25" d="M247.57 105.29v82.81M455.85 117.79v82.81M592.27 120.9V44.34M889.84 133.4V53.71M1061.87 145.9V69.34M1169.39 145.9V69.34M1276.91 145.9V63.09M1576.17 133.4V38.09M1784.44 158.4V75.59M1891.2 183.4v-82.81M194.83 580.32v82.81M399 580.32v82.81M503.65 580.32v76.56M796.58 580.32v82.81M1003.95 583.43v-70.31M1115.01 595.93v-76.56M1226.07 595.93v-76.56M1533.12 608.43v-95.31M1749.18 620.93v-82.81M1859.92 620.93v-82.81"/>
  <path d="M267.92 86.82c3.12 0 5.76.82 7.9 2.44a8.43 8.43 0 013.04 6.64c0 4.5-2.32 8.7-6.94 12.6-4.69 3.9-9.7 5.86-15.04 5.86-3.12 0-5.76-.81-7.9-2.44a8.43 8.43 0 01-3.03-6.64c0-4.5 2.34-8.7 7.03-12.6 4.55-3.9 9.53-5.86 14.94-5.86M476.2 99.32c3.12 0 5.76.82 7.9 2.45a8.43 8.43 0 013.03 6.64c0 4.49-2.3 8.69-6.93 12.6-4.69 3.9-9.7 5.85-15.04 5.85-3.12 0-5.76-.81-7.9-2.44a8.43 8.43 0 01-3.04-6.64c0-4.5 2.35-8.7 7.03-12.6 4.56-3.9 9.54-5.86 14.95-5.86M582.95 111.82c3.13 0 5.76.82 7.91 2.45a8.43 8.43 0 013.03 6.64c0 4.49-2.31 8.69-6.93 12.6-4.7 3.9-9.7 5.85-15.04 5.85-3.13 0-5.76-.81-7.91-2.44a8.43 8.43 0 01-3.03-6.64c0-4.5 2.34-8.69 7.03-12.6 4.56-3.9 9.54-5.86 14.94-5.86M880.52 124.33c3.13 0 5.76.8 7.91 2.44a8.43 8.43 0 013.03 6.64c0 4.49-2.31 8.69-6.93 12.6-4.7 3.9-9.7 5.85-15.04 5.85-3.13 0-5.76-.81-7.91-2.44a8.43 8.43 0 01-3.03-6.64c0-4.49 2.34-8.69 7.03-12.6 4.56-3.9 9.54-5.86 14.94-5.86M1052.55 136.83c3.13 0 5.77.81 7.92 2.44a8.45 8.45 0 013.02 6.64c0 4.49-2.31 8.69-6.93 12.6-4.69 3.9-9.7 5.86-15.04 5.86-3.13 0-5.76-.82-7.91-2.45a8.43 8.43 0 01-3.03-6.64c0-4.49 2.35-8.69 7.03-12.6 4.56-3.9 9.54-5.85 14.94-5.85M1160.07 136.83c3.13 0 5.77.81 7.92 2.44a8.45 8.45 0 013.02 6.64c0 4.49-2.31 8.69-6.93 12.6-4.69 3.9-9.7 5.86-15.04 5.86-3.13 0-5.76-.82-7.91-2.45a8.43 8.43 0 01-3.03-6.64c0-4.49 2.35-8.69 7.03-12.6 4.56-3.9 9.54-5.85 14.94-5.85M1267.59 136.83c3.13 0 5.77.81 7.92 2.44a8.45 8.45 0 013.02 6.64c0 4.49-2.31 8.69-6.93 12.6-4.69 3.9-9.7 5.86-15.04 5.86-3.13 0-5.76-.82-7.91-2.45a8.43 8.43 0 01-3.03-6.64c0-4.49 2.35-8.69 7.03-12.6 4.56-3.9 9.54-5.85 14.94-5.85M1566.85 124.33c3.12 0 5.76.8 7.91 2.44a8.42 8.42 0 013.02 6.64c0 4.49-2.31 8.69-6.93 12.6-4.69 3.9-9.7 5.85-15.04 5.85-3.12 0-5.76-.81-7.91-2.44a8.43 8.43 0 01-3.03-6.64c0-4.49 2.35-8.69 7.04-12.6 4.55-3.9 9.53-5.86 14.94-5.86M1775.13 149.33c3.12 0 5.76.81 7.91 2.44a8.45 8.45 0 013.02 6.64c0 4.5-2.31 8.69-6.93 12.6-4.69 3.9-9.7 5.86-15.04 5.86-3.12 0-5.76-.82-7.91-2.45a8.43 8.43 0 01-3.03-6.64c0-4.49 2.35-8.69 7.03-12.6 4.56-3.9 9.54-5.85 14.95-5.85M1881.88 174.33c3.13 0 5.76.81 7.91 2.44a8.43 8.43 0 013.03 6.64c0 4.5-2.31 8.7-6.93 12.6-4.69 3.9-9.71 5.86-15.04 5.86-3.13 0-5.77-.82-7.91-2.44a8.43 8.43 0 01-3.03-6.65c0-4.49 2.34-8.69 7.03-12.6 4.56-3.9 9.54-5.85 14.94-5.85M215.18 561.85c3.13 0 5.76.82 7.91 2.44a8.43 8.43 0 013.03 6.64c0 4.5-2.31 8.7-6.94 12.6-4.68 3.9-9.7 5.86-15.03 5.86-3.13 0-5.77-.81-7.91-2.44a8.43 8.43 0 01-3.03-6.64c0-4.5 2.34-8.7 7.03-12.6 4.56-3.9 9.54-5.86 14.94-5.86M419.35 561.85c3.12 0 5.76.82 7.9 2.44a8.43 8.43 0 013.03 6.64c0 4.5-2.3 8.7-6.93 12.6-4.69 3.9-9.7 5.86-15.04 5.86-3.13 0-5.76-.81-7.91-2.44a8.43 8.43 0 01-3.03-6.64c0-4.5 2.35-8.7 7.03-12.6 4.56-3.9 9.54-5.86 14.95-5.86M524 561.85c3.12 0 5.75.82 7.9 2.44a8.43 8.43 0 013.03 6.64c0 4.5-2.31 8.7-6.93 12.6-4.69 3.9-9.7 5.86-15.04 5.86-3.13 0-5.76-.81-7.91-2.44a8.43 8.43 0 01-3.03-6.64c0-4.5 2.35-8.7 7.03-12.6 4.56-3.9 9.54-5.86 14.94-5.86M816.93 561.85c3.12 0 5.76.82 7.9 2.44a8.43 8.43 0 013.03 6.64c0 4.5-2.3 8.7-6.93 12.6-4.69 3.9-9.7 5.86-15.04 5.86-3.12 0-5.76-.81-7.9-2.44a8.43 8.43 0 01-3.04-6.64c0-4.5 2.35-8.7 7.03-12.6 4.56-3.9 9.54-5.86 14.95-5.86M994.63 574.35c3.12 0 5.76.82 7.91 2.44a8.42 8.42 0 013.02 6.64c0 4.5-2.31 8.7-6.93 12.6-4.69 3.9-9.7 5.86-15.04 5.86-3.12 0-5.76-.81-7.9-2.44a8.43 8.43 0 01-3.04-6.64c0-4.5 2.35-8.7 7.03-12.6 4.56-3.9 9.54-5.86 14.95-5.86M1105.69 586.85c3.12 0 5.76.82 7.91 2.45a8.43 8.43 0 013.03 6.64c0 4.49-2.31 8.69-6.94 12.6-4.68 3.9-9.7 5.85-15.04 5.85-3.12 0-5.76-.81-7.91-2.44a8.45 8.45 0 01-3.02-6.64c0-4.5 2.34-8.69 7.03-12.6 4.56-3.9 9.54-5.86 14.94-5.86M1216.75 586.85c3.13 0 5.76.82 7.91 2.45a8.43 8.43 0 013.03 6.64c0 4.49-2.31 8.69-6.93 12.6-4.69 3.9-9.7 5.85-15.04 5.85-3.13 0-5.76-.81-7.91-2.44a8.43 8.43 0 01-3.03-6.64c0-4.5 2.34-8.69 7.03-12.6 4.56-3.9 9.54-5.86 14.94-5.86M1523.8 599.36c3.12 0 5.76.8 7.91 2.44a8.43 8.43 0 013.03 6.64c0 4.49-2.32 8.69-6.94 12.6-4.69 3.9-9.7 5.85-15.04 5.85-3.12 0-5.76-.81-7.91-2.44a8.42 8.42 0 01-3.02-6.64c0-4.49 2.34-8.69 7.03-12.6 4.55-3.9 9.53-5.86 14.94-5.86M1739.86 611.86c3.12 0 5.76.81 7.91 2.44a8.43 8.43 0 013.03 6.64c0 4.49-2.31 8.69-6.94 12.6-4.68 3.9-9.7 5.86-15.04 5.86-3.12 0-5.76-.82-7.91-2.45a8.45 8.45 0 01-3.02-6.64c0-4.49 2.34-8.69 7.03-12.6 4.55-3.9 9.54-5.85 14.94-5.85M1850.6 611.86c3.13 0 5.77.81 7.91 2.44a8.43 8.43 0 013.03 6.64c0 4.49-2.31 8.69-6.93 12.6-4.69 3.9-9.7 5.86-15.04 5.86-3.13 0-5.76-.82-7.91-2.45a8.43 8.43 0 01-3.03-6.64c0-4.49 2.34-8.69 7.03-12.6 4.56-3.9 9.54-5.85 14.94-5.85"/>
  <path d="M56.72 112.5h.59c.26-.06.48-.09.68-.09 7.3 0 13.28 2.57 17.97 7.72 4.69 5.07 7.03 11 7.03 17.77 0 8.4-3.48 15.23-10.45 20.5a22.1 22.1 0 01-7.13 3.52c.33 4.24.49 7.65.49 10.26 0 .52-.07 2.4-.2 5.66a24.67 24.67 0 01-6.25 15.72c-3.77 4.37-8.46 6.55-14.06 6.55-5.27 0-9.76-1.86-13.47-5.57a18.8 18.8 0 01-5.57-13.67c0-2.8 1.07-5.18 3.22-7.13a11.3 11.3 0 017.72-2.93c2.6 0 4.78 1 6.54 3.03a9.73 9.73 0 012.73 7.03c0 2.54-.9 4.72-2.73 6.54a8.93 8.93 0 01-9.57 2.15c2.86 4.23 6.67 6.35 11.42 6.35 4.5 0 8.18-1.83 11.04-5.47 3-3.78 4.62-8.17 4.88-13.19.13-3.12.2-4.91.2-5.37 0-3.64-.13-6.64-.4-8.98-3.25.52-6.14.78-8.68.78-9.05 0-16.77-3.58-23.15-10.74-6.25-7.23-9.37-15.82-9.37-25.78 0-2.09.2-4.2.58-6.35.4-1.76.88-3.68 1.47-5.76.32-1.17 1.2-3.06 2.63-5.67.52-.78 1.11-1.75 1.76-2.93.65-1.17 1.1-1.95 1.37-2.34.65-1.3 1.92-3.06 3.8-5.27a37 37 0 001.62-1.96c.55-.71 1.02-1.3 1.41-1.75a319.38 319.38 0 015.27-6.25c.66-.66 1.3-1.35 1.91-2.1a44.37 44.37 0 012.4-2.69c-2.35-7.75-3.81-13.93-4.4-18.55-.45-3.71-.68-8.8-.68-15.24 0-5.66 1.3-10.97 3.9-15.92a33.37 33.37 0 0110.65-12.6c.26-.19.58-.29.97-.29.46 0 .79.1.98.3 3.52 4.23 6.54 9.73 9.08 16.5 2.6 6.77 3.9 12.92 3.9 18.46 0 6.25-1.49 12.1-4.48 17.58a122.06 122.06 0 01-13.09 17.96c1.37 4.3 3.2 11.04 5.47 20.22m8.3 45.4a15.29 15.29 0 007.91-6.34 16.03 16.03 0 003.13-9.67c0-4.62-1.57-8.72-4.7-12.3a17.64 17.64 0 00-12.2-6.25c2.8 13.74 4.75 25.26 5.86 34.57m-37.8-22.56c0 6.45 2.61 12.11 7.82 17 5.34 4.74 11.33 7.12 17.97 7.12 2.73 0 5.4-.2 8-.58-1.03-9.9-3.09-21.75-6.15-35.55-3.7.39-6.67 1.7-8.88 3.9a10.96 10.96 0 00-3.22 7.72c0 4.95 2.63 8.95 7.9 12.01.46.46.69.95.69 1.47s-.23 1-.68 1.46c-.4.46-.88.69-1.47.69-.06 0-.36-.07-.88-.2a22.77 22.77 0 01-8.6-7.81 20.86 20.86 0 01-2.82-10.26c0-4.49 1.4-8.56 4.2-12.2a19.7 19.7 0 0111.42-7.03 562.45 562.45 0 00-4.5-17.1 1571.34 1571.34 0 00-6.34 7.23 427.14 427.14 0 00-5.37 7.13 51.65 51.65 0 00-4.88 7.91 61.95 61.95 0 00-2.93 8.1c-.85 2.8-1.27 5.8-1.27 8.99m32.61-99.32A27.74 27.74 0 0048.33 46.4a27.86 27.86 0 00-4.3 14.94c0 4.68 1.18 11 3.52 18.94 4.69-5.66 8.2-10.9 10.55-15.72a35.9 35.9 0 003.7-15.92c0-4.17-.64-8.36-1.95-12.6M56.72 587.54h.59c.26-.07.48-.1.68-.1 7.3 0 13.28 2.57 17.97 7.72 4.69 5.07 7.03 11 7.03 17.77 0 8.4-3.48 15.23-10.45 20.5a22.1 22.1 0 01-7.13 3.52c.33 4.23.49 7.65.49 10.26 0 .52-.07 2.4-.2 5.66a24.67 24.67 0 01-6.25 15.72c-3.77 4.37-8.46 6.55-14.06 6.55-5.27 0-9.76-1.86-13.47-5.57a18.8 18.8 0 01-5.57-13.67c0-2.8 1.07-5.18 3.22-7.13a11.3 11.3 0 017.72-2.93c2.6 0 4.78 1 6.54 3.03a9.73 9.73 0 012.73 7.03c0 2.54-.9 4.72-2.73 6.54a8.93 8.93 0 01-9.57 2.15c2.86 4.23 6.67 6.35 11.42 6.35 4.5 0 8.18-1.83 11.04-5.47 3-3.78 4.62-8.17 4.88-13.19.13-3.12.2-4.91.2-5.37 0-3.64-.13-6.64-.4-8.98-3.25.52-6.14.78-8.68.78-9.05 0-16.77-3.58-23.15-10.74-6.25-7.23-9.37-15.82-9.37-25.78 0-2.09.2-4.2.58-6.35.4-1.76.88-3.68 1.47-5.76.32-1.17 1.2-3.06 2.63-5.67.52-.78 1.11-1.75 1.76-2.93.65-1.17 1.1-1.95 1.37-2.34.65-1.3 1.92-3.06 3.8-5.27.53-.59 1.07-1.24 1.62-1.96.55-.71 1.02-1.3 1.41-1.75a315.2 315.2 0 015.27-6.25c.66-.66 1.3-1.36 1.91-2.1a44.85 44.85 0 012.4-2.69c-2.35-7.75-3.81-13.93-4.4-18.55-.45-3.72-.68-8.8-.68-15.24 0-5.66 1.3-10.97 3.9-15.92a33.36 33.36 0 0110.65-12.6c.26-.19.58-.29.97-.29.46 0 .79.1.98.3 3.52 4.23 6.54 9.73 9.08 16.5 2.6 6.77 3.9 12.92 3.9 18.46 0 6.25-1.49 12.1-4.48 17.58a122.09 122.09 0 01-13.09 17.96c1.37 4.3 3.2 11.04 5.47 20.22m8.3 45.4a15.29 15.29 0 007.91-6.34 16.03 16.03 0 003.13-9.67c0-4.62-1.57-8.72-4.7-12.3a17.65 17.65 0 00-12.2-6.25c2.8 13.74 4.75 25.26 5.86 34.57m-37.8-22.56c0 6.45 2.61 12.11 7.82 17 5.34 4.75 11.33 7.12 17.97 7.12 2.73 0 5.4-.2 8-.59-1.03-9.89-3.09-21.74-6.15-35.54-3.7.39-6.67 1.7-8.88 3.9a10.96 10.96 0 00-3.22 7.72c0 4.95 2.63 8.95 7.9 12.01.46.46.69.95.69 1.47s-.23 1-.68 1.46c-.4.46-.88.68-1.47.68-.06 0-.36-.06-.88-.2a22.77 22.77 0 01-8.6-7.8 20.86 20.86 0 01-2.82-10.26c0-4.49 1.4-8.56 4.2-12.2a19.7 19.7 0 0111.42-7.03 562.25 562.25 0 00-4.5-17.1 1631.44 1631.44 0 00-6.34 7.23 422.96 422.96 0 00-5.37 7.13 51.65 51.65 0 00-4.88 7.91 61.95 61.95 0 00-2.93 8.1c-.85 2.8-1.27 5.8-1.27 8.99m32.61-99.32a27.74 27.74 0 00-11.52 10.35 27.86 27.86 0 00-4.3 14.95c0 4.68 1.18 11 3.52 18.94 4.69-5.66 8.2-10.9 10.55-15.72a35.9 35.9 0 003.7-15.92c0-4.16-.64-8.36-1.95-12.6"/>
  <path d="M113.12 109v7.7c0 2.74.13 4.92.4 6.55a85.03 85.03 0 004.58-4.1 20.45 20.45 0 003.13-4.3 10.95 10.95 0 001.56-5.47c0-1.82-.4-3.38-1.17-4.69-.79-1.3-1.83-1.95-3.13-1.95-1.56 0-2.86.59-3.9 1.76a7.28 7.28 0 00-1.47 4.5m-4.1 17.86l-1.27-59.47a5.47 5.47 0 012.73-.78c.91 0 1.83.26 2.74.78l-.78 34.47a13.73 13.73 0 019.18-3.42 7.86 7.86 0 016.34 3.13 10.99 10.99 0 012.54 7.13c0 1.7-.55 3.48-1.66 5.37a15.7 15.7 0 01-3.32 4.1c-.65.52-2.3 1.82-4.98 3.9a235.04 235.04 0 01-4.78 3.52c-.46.26-.88.78-1.27 1.57a7.6 7.6 0 01-1.56 1.66c-.46.39-1.01.58-1.67.58-.65 0-1.17-.23-1.56-.68a2.5 2.5 0 01-.68-1.86M113.12 584.02v7.72c0 2.73.13 4.91.4 6.54a85.03 85.03 0 004.58-4.1 20.45 20.45 0 003.13-4.3 10.95 10.95 0 001.56-5.47c0-1.82-.4-3.38-1.17-4.68-.79-1.3-1.83-1.96-3.13-1.96-1.56 0-2.86.59-3.9 1.76a7.28 7.28 0 00-1.47 4.5m-4.1 17.86l-1.27-59.47a5.47 5.47 0 012.73-.78c.91 0 1.83.26 2.74.78l-.78 34.47a13.73 13.73 0 019.18-3.41 7.86 7.86 0 016.34 3.12 10.99 10.99 0 012.54 7.13c0 1.7-.55 3.48-1.66 5.37a15.7 15.7 0 01-3.32 4.1c-.65.52-2.3 1.82-4.98 3.9a235.04 235.04 0 01-4.78 3.52c-.46.26-.88.78-1.27 1.56-.46.66-.98 1.21-1.56 1.67-.46.39-1.01.58-1.67.58-.65 0-1.17-.23-1.56-.68a2.5 2.5 0 01-.68-1.86"/>
  <path d="M180.68 113.1c-1.95 0-3.7-.37-5.27-1.08a9.43 9.43 0 01-3.32-2.25c-.85-.97-1.7-1.72-2.54-2.24a5.89 5.89 0 00-7.42.49 5.52 5.52 0 00-1.96 4c-.13.71-.52 1.07-1.17 1.07-.78 0-1.17-.36-1.17-1.07 0-2.54.59-4.82 1.76-6.84 1.17-2.08 2.6-3.8 4.3-5.17a108.3 108.3 0 015.66-4.5l2.49-2.05c1.27-1.04 2.33-1.92 3.17-2.63a18.78 18.78 0 004.4-5.67 16.8 16.8 0 001.75-7.62c0-3.32-.55-6.18-1.66-8.59-1.17-2.34-2.96-3.51-5.37-3.51-1.5 0-2.7.32-3.6.97a3.02 3.02 0 00-1.47 2.64c0 .91.58 2.05 1.75 3.42 1.18 1.36 1.76 2.5 1.76 3.41 0 1.96-.68 3.62-2.05 4.98a6.5 6.5 0 01-4.78 1.96 6.78 6.78 0 01-4.98-2.05 7.06 7.06 0 01-1.96-4.89c0-3.7 1.5-6.77 4.5-9.18 2.99-2.4 6.6-3.6 10.83-3.6 5.02 0 9.38 1.36 13.09 4.1 3.71 2.6 5.57 6.05 5.57 10.34 0 2.93-.52 5.44-1.57 7.52a11.42 11.42 0 01-4.4 5.18 53.86 53.86 0 01-5.75 3.32 154.48 154.48 0 01-6.84 2.93 38.35 38.35 0 00-6.35 3.12c.85-.19 1.73-.29 2.64-.29 3 0 6.12.98 9.38 2.93 3.32 1.95 5.89 2.93 7.71 2.93 1.1 0 1.99-.2 2.64-.59a2.94 2.94 0 001.27-1.26c.26-.66.49-1.11.68-1.37.26-.4.59-.59.98-.59.78 0 1.17.4 1.17 1.17 0 1.83-1.3 4.04-3.9 6.64-2.55 2.6-5.87 3.91-9.97 3.91M178.5 114.45c1.95 0 3.6-.23 4.97-.68 1.37-.46 2.25-.69 2.64-.69.46 0 .81.13 1.08.4.2.19.32.42.39.68 0 .13-.07.32-.2.58l-28.42 33.01h16.7v-13.09c0-.84.23-1.56.69-2.14a5.43 5.43 0 011.95-1.18c.84-.39 1.89-1.3 3.12-2.73 1.05-1.17 2.28-3.22 3.72-6.15.19-.4.48-.59.87-.59.78 0 1.24.46 1.37 1.37v24.51h7.13c.91 0 1.43.49 1.56 1.47 0 .97-.52 1.46-1.56 1.46h-7.13v.78c0 2.6.65 4.82 1.95 6.64 1.5 1.83 3.26 2.74 5.28 2.74.78 0 1.17.39 1.17 1.17 0 .78-.4 1.17-1.17 1.17-1.37 0-3.58-.2-6.64-.59-2.8-.45-4.98-.68-6.55-.68-1.62 0-3.8.23-6.54.69-2.93.39-5.11.58-6.54.58-.78 0-1.17-.39-1.17-1.17 0-.78.39-1.17 1.17-1.17 2.02 0 3.77-.91 5.27-2.74a11.01 11.01 0 002.05-6.64v-.78h-16.7c-1.1 0-1.89-.26-2.34-.78a1.85 1.85 0 01-.78-1.56c0-.2.49-.88 1.46-2.05 1.11-1.3 2.28-2.9 3.52-4.79 1.43-2.21 2.8-4.5 4.1-6.84a39 39 0 003.42-9.17c.97-3.52 1.46-7.1 1.46-10.75 0-1.04.46-1.56 1.37-1.56.2 0 .62.1 1.27.3.2.06.6.16 1.22.29.62.13 1.12.26 1.51.39 1.18.2 2.28.29 3.32.29"/>
  <path d="M1871.58 36.14a6.51 6.51 0 01-1.95-4.79c0-1.89.65-3.48 1.95-4.79a6.5 6.5 0 014.78-1.95c1.89 0 3.49.65 4.79 1.95a6.51 6.51 0 011.95 4.79c0 1.89-.65 3.48-1.95 4.79a6.51 6.51 0 01-4.79 1.95 6.5 6.5 0 01-4.78-1.95m-6.54-33.6A24.94 24.94 0 011876.36 0c4.17 0 7.95.85 11.33 2.54 3.71 1.7 6.64 3.81 8.79 6.35a57.7 57.7 0 016.15 8.3 42.15 42.15 0 014.11 8.7c.84 2.4 1.56 4.74 2.14 7.02.46 1.76.69 3 .69 3.71 0 .33-.2.69-.59 1.08-.52.26-.94.39-1.27.39-.97 0-1.63-.59-1.95-1.76a32.26 32.26 0 00-10.16-18.75 27.97 27.97 0 00-19.24-7.42c-7.29 0-13.7 2.47-19.23 7.42a32.26 32.26 0 00-10.16 18.75c-.2 1.17-.85 1.76-1.95 1.76-.33 0-.75-.13-1.27-.4-.39-.38-.59-.74-.59-1.07 0-.71.23-1.95.68-3.7a89.66 89.66 0 012.15-7.04 42.63 42.63 0 014.1-8.69c1.7-2.8 3.75-5.57 6.16-8.3a23.92 23.92 0 018.79-6.35M1840.3 511.17a6.51 6.51 0 01-1.95-4.79c0-1.89.65-3.48 1.95-4.78a6.51 6.51 0 014.79-1.96c1.89 0 3.48.65 4.78 1.96a6.52 6.52 0 011.96 4.78c0 1.89-.66 3.48-1.96 4.79a6.49 6.49 0 01-4.78 1.95 6.51 6.51 0 01-4.79-1.95m-6.54-33.6a24.97 24.97 0 0111.33-2.54c4.16 0 7.94.85 11.33 2.54 3.71 1.7 6.64 3.81 8.78 6.35a58.51 58.51 0 016.16 8.3 42.62 42.62 0 014.1 8.7c.84 2.4 1.56 4.74 2.15 7.02.45 1.76.68 3 .68 3.71 0 .33-.2.69-.59 1.08-.52.26-.94.39-1.27.39-.97 0-1.62-.59-1.95-1.76a32.3 32.3 0 00-10.15-18.75 28 28 0 00-19.24-7.42 27.99 27.99 0 00-19.24 7.42 32.26 32.26 0 00-10.16 18.75c-.19 1.17-.84 1.76-1.95 1.76-.33 0-.75-.13-1.27-.4-.39-.38-.59-.74-.59-1.07 0-.71.23-1.95.69-3.7.58-2.29 1.3-4.63 2.15-7.04a41.6 41.6 0 014.1-8.69 57.66 57.66 0 016.15-8.3 23.93 23.93 0 018.79-6.35"/>
  <path fill-rule="evenodd" d="M1060.25 63.09h110.77v12.5h-110.77V63.1M1060.25 81.84h110.77v12.5h-110.77v-12.5M1002.32 506.68l114.31 6.43v12.52l-114.31-6.43v-12.53M1002.32 525.43l114.31 6.43v12.52l-114.31-6.43v-12.52"/>
  <path d="M268.7 115.73c1.5 0 3.1 2.45 4.78 7.33a43 43 0 012.45 13.77c0 3.7-.92 7.39-2.74 11.03a42.41 42.41 0 01-6.74 10.16l-8 8.98a51.02 51.02 0 00-6.64 9.97 24.65 24.65 0 00-2.74 11.13h-3.13v-25h3.13c1.76-1.1 4.36-2.87 7.81-5.28 1.56-1.17 3.9-3.12 7.03-5.85a27.28 27.28 0 005.77-7.23 16.85 16.85 0 002.05-7.91c0-6.19-1.8-12.34-5.38-18.46v-.39c0-.59.2-1.07.6-1.46.51-.52 1.1-.78 1.75-.78M457.35 180.58c2.6-1.5 5.08-3.03 7.42-4.6a73.95 73.95 0 006.64-5.26 25.9 25.9 0 005.37-6.65 15.64 15.64 0 001.96-7.32c0-2.28-.46-4.59-1.37-6.93-.72.9-2.83 3-6.35 6.25a136.36 136.36 0 00-6.84 6.74 31.4 31.4 0 00-4.68 6.83 18.48 18.48 0 00-2.15 8.5v2.44m26.85-46.29c0 3.9-1.23 7.78-3.7 11.62a25.1 25.1 0 012.43 10.84c0 3.2-.87 6.41-2.63 9.67-1.89 3.52-4 6.38-6.35 8.6l-7.62 7.41a39.61 39.61 0 00-6.34 8.5 19.47 19.47 0 00-2.64 9.67h-3.13v-50h3.13v7.52c15.1-7.88 22.65-15.82 22.65-23.83 0-1.76-.45-3.8-1.36-6.15v-.4c0-.51.2-1.03.58-1.55.52-.53 1.11-.79 1.76-.79.65 0 1.24.4 1.76 1.17.58 1.05.91 2.06.98 3.03.06.46.13 1.04.2 1.76l.19 1.07c.06.46.1 1.08.1 1.86M888.22 78.71v-25h3.12c0 3.72.72 7.43 2.15 11.14a61.2 61.2 0 005.17 10.54c1.37 2.15 3.42 5.44 6.16 9.87a64.76 64.76 0 015.27 10.64 30.73 30.73 0 012.15 11.13c0 6.78-1.4 13.68-4.2 20.7-.52.79-1.14 1.18-1.86 1.18-.65 0-1.23-.26-1.75-.78-.4-.4-.59-.88-.59-1.47v-.48a47.75 47.75 0 004.2-19.15c0-3.25-.98-6.77-2.93-10.54a43.98 43.98 0 00-5.96-9.18 204.97 204.97 0 00-7.8-8.6h-3.13M1574.54 63.09v-25h3.13c0 3.7.71 7.42 2.14 11.13a61.64 61.64 0 005.18 10.55c1.37 2.15 3.42 5.43 6.15 9.86a64.88 64.88 0 015.28 10.65 30.76 30.76 0 012.14 11.13c0 6.77-1.4 13.67-4.2 20.7-.52.78-1.13 1.17-1.85 1.17-.65 0-1.24-.26-1.76-.78a1.98 1.98 0 01-.58-1.46v-.5a47.9 47.9 0 004.19-19.13c0-3.26-.97-6.77-2.93-10.55a43.74 43.74 0 00-5.95-9.18 212.68 212.68 0 00-7.81-8.6h-3.13M1785.94 75.6c0 3.31.72 6.63 2.15 9.95a51.47 51.47 0 005.08 9.28l5.86 8.6a43.32 43.32 0 015.08 9.27 24.33 24.33 0 012.15 9.86c0 3.06-.79 6.25-2.35 9.57a26.14 26.14 0 012.93 11.63c0 5.98-1.4 12.1-4.2 18.35-.52.78-1.14 1.18-1.85 1.18-.65 0-1.24-.26-1.76-.78a2 2 0 01-.59-1.47v-.49a36.86 36.86 0 004.2-16.8c0-2.53-.49-4.88-1.46-7.03a35.09 35.09 0 00-4.3-7.03 65.95 65.95 0 00-5.08-6.05c-1.69-1.7-3.64-3.55-5.86-5.57v7.52h-3.12v-50h3.12m15.34 51.66c.45-1.37.68-2.93.68-4.69 0-2.28-.46-4.59-1.37-6.93a34.62 34.62 0 00-4.1-7.13c-1.63-2.02-3.29-4-4.98-5.96-1.3-1.43-3.16-3.32-5.57-5.66 0 2.67.56 5.5 1.66 8.5a59.84 59.84 0 003.62 7.32c1.43 2.21 3.19 4.72 5.27 7.52a82.52 82.52 0 014.79 7.03M215.96 590.76c1.5 0 3.1 2.45 4.79 7.33a43.03 43.03 0 012.44 13.77c0 3.7-.91 7.39-2.74 11.03a42.42 42.42 0 01-6.73 10.16l-8.01 8.98a51.06 51.06 0 00-6.64 9.97 24.65 24.65 0 00-2.74 11.13h-3.12v-25h3.12c1.76-1.1 4.36-2.87 7.81-5.28 1.57-1.17 3.91-3.12 7.04-5.86a27.28 27.28 0 005.76-7.22 16.86 16.86 0 002.05-7.91c0-6.19-1.8-12.34-5.37-18.46v-.39c0-.59.2-1.07.58-1.46.52-.52 1.11-.79 1.76-.79M400.5 643.1c2.6-1.49 5.08-3.02 7.42-4.58a73.75 73.75 0 006.64-5.27 25.91 25.91 0 005.37-6.65 15.64 15.64 0 001.95-7.32c0-2.28-.45-4.59-1.36-6.93-.72.9-2.83 3-6.35 6.25a136.8 136.8 0 00-6.84 6.74 31.4 31.4 0 00-4.68 6.83 18.48 18.48 0 00-2.15 8.5v2.44m26.85-46.3c0 3.92-1.23 7.79-3.7 11.63a25.11 25.11 0 012.43 10.84c0 3.19-.88 6.41-2.63 9.67a33.5 33.5 0 01-6.35 8.6l-7.62 7.41a39.58 39.58 0 00-6.35 8.5 19.47 19.47 0 00-2.63 9.67h-3.13v-50h3.13v7.52c15.1-7.88 22.65-15.82 22.65-23.83 0-1.76-.45-3.8-1.36-6.15v-.4c0-.51.2-1.04.58-1.56.52-.52 1.11-.78 1.76-.78.65 0 1.24.4 1.76 1.17.59 1.05.91 2.05.98 3.03.06.46.13 1.04.19 1.76l.2 1.07c.06.46.1 1.08.1 1.86M817.7 590.76c1.5 0 3.1 2.45 4.8 7.33a43.03 43.03 0 012.43 13.77c0 3.7-.9 7.39-2.73 11.03a42.41 42.41 0 01-6.74 10.16l-8 8.98a51.02 51.02 0 00-6.65 9.97 24.65 24.65 0 00-2.73 11.13h-3.13v-25h3.13c1.76-1.1 4.36-2.87 7.81-5.28a135.1 135.1 0 007.03-5.86 27.26 27.26 0 005.76-7.22 16.86 16.86 0 002.06-7.91c0-6.19-1.8-12.34-5.38-18.46v-.39c0-.59.2-1.07.59-1.46.52-.52 1.1-.79 1.76-.79M1531.49 538.12v-25h3.13c0 3.7.71 7.42 2.14 11.13a61.63 61.63 0 005.18 10.55c1.37 2.15 3.42 5.43 6.15 9.86a64.9 64.9 0 015.28 10.65 30.76 30.76 0 012.14 11.13 55.9 55.9 0 01-4.19 20.7c-.53.78-1.14 1.17-1.86 1.17-.65 0-1.24-.26-1.76-.78a1.98 1.98 0 01-.58-1.46v-.5a47.75 47.75 0 004.2-19.13c0-3.26-.98-6.77-2.93-10.55a44.16 44.16 0 00-5.96-9.18 205.72 205.72 0 00-7.81-8.6h-3.13M1750.68 538.12c0 3.32.71 6.64 2.15 9.96a51.44 51.44 0 005.07 9.28l5.86 8.6a42.92 42.92 0 015.08 9.27 24.33 24.33 0 012.15 9.86c0 3.06-.78 6.25-2.34 9.57a26.28 26.28 0 012.93 11.62c0 6-1.4 12.11-4.2 18.36-.52.78-1.14 1.18-1.86 1.18-.65 0-1.24-.27-1.76-.79-.39-.39-.58-.88-.58-1.46v-.49a36.86 36.86 0 004.2-16.8c0-2.53-.49-4.88-1.47-7.03a34.66 34.66 0 00-4.3-7.03 66.2 66.2 0 00-5.07-6.05c-1.7-1.7-3.65-3.55-5.86-5.57v7.52h-3.13v-50h3.13m15.33 51.66c.45-1.37.68-2.93.68-4.69 0-2.28-.45-4.59-1.36-6.93a35.15 35.15 0 00-4.11-7.13 195 195 0 00-4.98-5.96c-1.3-1.43-3.15-3.32-5.56-5.66 0 2.67.55 5.5 1.66 8.5a58.47 58.47 0 003.61 7.32c1.43 2.21 3.19 4.72 5.27 7.52a80.22 80.22 0 014.79 7.03"/>
  <path d="M212.25 246.79c0-5.72 1.76-10.37 5.28-13.94 3.52-3.58 7.9-5.37 13.15-5.37 2.34 0 4.54.3 6.6.91 2.05.6 3.24.9 3.57.9 1.21 0 1.98-.6 2.31-1.8h1.16l.49 12.42h-1.27c-2.01-6.82-5.95-10.23-11.82-10.23-4 0-7.18 1.49-9.54 4.46-2.37 2.97-3.55 6.95-3.55 11.93 0 3.2.41 5.95 1.24 8.28.82 2.33 1.93 4.09 3.32 5.28 1.4 1.2 2.84 2.05 4.32 2.58a14 14 0 004.76.8c4.33 0 8.41-1.85 12.26-5.55l1 .99a16.8 16.8 0 01-6.44 5.17 20.1 20.1 0 01-8.58 1.81c-5.43 0-9.83-1.7-13.2-5.11-3.37-3.41-5.06-7.92-5.06-13.53m43.6-1v13.26c0 1.9.23 3.14.67 3.69.44.55 1.47.91 3.08 1.1v.82h-11.88v-.82c1.58-.22 2.56-.59 2.94-1.1.39-.52.58-1.74.58-3.69v-25.9c0-1.18-.16-1.95-.47-2.31-.31-.37-1-.55-2.06-.55-.26 0-.57.03-.94.1v-.87c2.6-.7 5.21-1.5 7.81-2.42l.28.16v16.72a12.9 12.9 0 013.77-3.54 8.62 8.62 0 014.31-1.08c4.51 0 6.77 2.92 6.77 8.75v10.94c0 1.9.17 3.11.52 3.6.35.5 1.28.9 2.78 1.19v.82h-11.66v-.82c1.58-.15 2.6-.52 3.05-1.1.46-.59.69-1.82.69-3.69v-10.89c0-3.88-1.38-5.83-4.13-5.83-1.06 0-2.06.27-3 .8-.93.53-1.96 1.42-3.1 2.67m24.02 3.63c.07 2.3.38 4.3.93 5.97a8.82 8.82 0 002.15 3.73 8.39 8.39 0 002.67 1.76c.9.35 1.84.53 2.83.53a8 8 0 004.6-1.32c1.3-.88 2.6-2.37 3.92-4.46l.88.39c-1.13 2.97-2.7 5.24-4.73 6.82a10.95 10.95 0 01-6.93 2.36c-3.15 0-5.65-1.1-7.5-3.32-1.85-2.22-2.78-5.22-2.78-9 0-4.07 1.07-7.34 3.22-9.81a10.45 10.45 0 018.27-3.72c2.8 0 4.95.84 6.5 2.5 1.53 1.67 2.5 4.2 2.9 7.57h-16.93m.1-1.76h11.23c-.37-2.39-.94-4.04-1.7-4.95-.78-.92-2-1.38-3.7-1.38-3.3 0-5.23 2.11-5.82 6.33m19.51-17.27v-.88c3.63-.88 6.55-1.69 8.75-2.42l.21.1v32.84c0 1.5.25 2.49.75 2.94.5.46 1.62.75 3.38.86v.82h-12.98v-.82c1.72-.15 2.86-.48 3.41-1 .55-.5.83-1.5.83-2.96v-26.24c0-1.28-.17-2.16-.5-2.64-.33-.47-.94-.71-1.81-.71-.74 0-1.42.03-2.04.1M450.36 240.46c.04 0 .33-.18.88-.55h.6l.22 7.48h-.82c-.62-2.45-1.4-4.2-2.31-5.22a4.76 4.76 0 00-3.74-1.54c-1.25 0-2.26.35-3.05 1.04-.8.7-1.19 1.6-1.19 2.7 0 1.57.8 2.82 2.37 3.74l5.94 3.52c1.65.99 2.83 1.99 3.55 3a6.5 6.5 0 01-1.21 8.5 7.82 7.82 0 01-5.48 2.08c-.91 0-2.14-.16-3.68-.5-1.54-.32-2.5-.49-2.86-.49-.55 0-.97.22-1.27.66h-.71v-8.58h.88c.59 2.57 1.28 4.38 2.09 5.45a5.86 5.86 0 004.9 2.25c1.39 0 2.5-.36 3.32-1.07a3.63 3.63 0 001.24-2.89c0-1.65-.95-3.02-2.86-4.12l-3.2-1.82c-2.34-1.32-4-2.58-4.97-3.8a6.4 6.4 0 01-1.46-4.12c0-1.98.71-3.6 2.12-4.87a7.73 7.73 0 015.36-1.9c1.21 0 2.35.18 3.41.53 1.07.35 1.7.52 1.93.52m10.77 8.97c.07 2.3.38 4.3.93 5.97a8.82 8.82 0 002.15 3.73 8.39 8.39 0 002.66 1.76c.9.35 1.85.53 2.84.53a8 8 0 004.59-1.32c1.3-.88 2.61-2.37 3.93-4.46l.88.39c-1.14 2.97-2.71 5.24-4.73 6.82a10.95 10.95 0 01-6.93 2.36c-3.15 0-5.65-1.1-7.5-3.32-1.86-2.22-2.78-5.22-2.78-9 0-4.07 1.07-7.34 3.21-9.81a10.45 10.45 0 018.28-3.72c2.79 0 4.95.84 6.5 2.5 1.53 1.67 2.5 4.2 2.9 7.57h-16.93m.1-1.76h11.23c-.37-2.39-.94-4.04-1.7-4.95-.78-.92-2-1.38-3.7-1.38-3.3 0-5.24 2.11-5.82 6.33m20.33 11.66c0-.66.08-1.28.22-1.84.15-.57.4-1.1.77-1.6s.72-.94 1.05-1.35c.33-.4.82-.81 1.48-1.23l1.65-1.05c.44-.27 1.11-.6 2.01-.99l2.06-.88 2.26-.9 2.25-.89v-3.35c0-3.05-1.4-4.57-4.18-4.57-1.1 0-2.03.27-2.8.8s-1.16 1.16-1.16 1.9c0 .3.05.7.14 1.2.1.52.14.85.14 1 0 .62-.25 1.16-.75 1.62-.49.46-1.07.69-1.73.69-.62 0-1.17-.24-1.65-.72a2.27 2.27 0 01-.71-1.65c0-1.72.89-3.18 2.67-4.37a11.55 11.55 0 016.57-1.79c3 0 5.08.73 6.21 2.17 1.14 1.45 1.7 3.66 1.7 6.63v10.73a6 6 0 00.37 2.5c.23.46.66.69 1.29.69.77 0 1.57-.35 2.42-1.05v1.43a10.14 10.14 0 01-2.5 2.18c-.72.38-1.54.57-2.45.57-1.14 0-1.97-.3-2.5-.93-.54-.63-.88-1.65-1.02-3.08-3.16 2.67-5.83 4.01-8.03 4.01a5.57 5.57 0 01-5.78-5.88m13.75-1.43v-7.98c-3.3 1.21-5.6 2.39-6.93 3.52a5.26 5.26 0 00-1.98 4.13c0 1.5.37 2.62 1.1 3.35.74.74 1.52 1.1 2.37 1.1 1.24 0 2.58-.42 4.01-1.26.59-.33.97-.68 1.16-1.05.18-.36.27-.97.27-1.81M535.49 227.2v16.84a7.04 7.04 0 012.97-3.36 8.75 8.75 0 0111.57 2.12c1.86 2.3 2.78 5.12 2.78 8.5 0 3.92-1.23 7.22-3.71 9.9a11.98 11.98 0 01-9.16 4.01c-2.2 0-4.26-.37-6.19-1.13-1.92-.75-2.88-1.54-2.88-2.39v-28.54c0-1.14-.18-1.9-.52-2.26-.35-.36-1.08-.55-2.18-.55-.4 0-.71.02-.93.06v-.88c2.82-.7 5.48-1.5 7.97-2.42l.28.1m0 19.75v13.86c0 .7.53 1.31 1.6 1.84 1.06.54 2.3.8 3.73.8 2.28 0 4.04-.84 5.28-2.53 1.25-1.68 1.87-4.05 1.87-7.1 0-3.33-.63-6-1.9-8-1.26-2-2.97-3-5.14-3-1.43 0-2.7.43-3.8 1.27-1.1.85-1.64 1.8-1.64 2.86m45.1 14.96v.77a65 65 0 00-7.54 2.48l-.22-.11v-4.57l-.96 1c-.53.54-.9.92-1.13 1.12-.22.2-.6.51-1.13.94-.53.42-1 .72-1.4.9-.4.19-.91.36-1.54.52-.62.17-1.24.25-1.87.25a6.3 6.3 0 01-4.84-1.95c-1.2-1.3-1.81-3.03-1.81-5.2V244.2c0-1.28-.24-2.17-.72-2.66-.47-.5-1.37-.78-2.7-.86v-.77h8.04v17.93c0 1.14.38 2.12 1.15 2.95a3.64 3.64 0 002.75 1.23c.4 0 .88-.05 1.43-.16a9.53 9.53 0 001.9-.63 4.4 4.4 0 001.82-1.49c.49-.68.74-1.51.74-2.5V244.3c0-1.35-.25-2.25-.74-2.7-.5-.43-1.6-.69-3.33-.76v-.94h8.69v18.87c0 1.28.2 2.12.6 2.53.4.4 1.25.6 2.53.6h.28m1.08-19.14v-.93c2.72-.8 5.25-1.63 7.6-2.48l.38.11v4.35a25.56 25.56 0 014.43-3.55c1.08-.6 2.26-.9 3.54-.9 2.02 0 3.6.72 4.76 2.16 1.16 1.45 1.74 3.48 1.74 6.08v12.6c0 1.35.22 2.26.65 2.72.45.46 1.34.76 2.7.9v.83h-11.44v-.82c1.4-.11 2.32-.48 2.78-1.1.46-.63.69-1.8.69-3.52v-11.5c0-3.55-1.34-5.33-4.02-5.33-.92 0-1.76.2-2.53.63a17.3 17.3 0 00-3.13 2.5v15.46c0 .99.25 1.68.76 2.09.52.4 1.47.66 2.87.77v.82h-11.67v-.82c1.4-.11 2.32-.43 2.75-.96.45-.54.67-1.6.67-3.17v-13.64c0-1.35-.15-2.28-.45-2.78-.29-.49-.82-.74-1.59-.74-.7 0-1.2.08-1.49.22m41.09-2.3c.03 0 .33-.2.88-.56h.6l.22 7.48h-.82c-.63-2.45-1.4-4.2-2.31-5.22a4.76 4.76 0 00-3.74-1.54c-1.25 0-2.27.35-3.06 1.04-.78.7-1.18 1.6-1.18 2.7 0 1.57.79 2.82 2.37 3.74l5.94 3.52c1.65.99 2.83 1.99 3.54 3a6.5 6.5 0 01-1.21 8.5 7.82 7.82 0 01-5.47 2.08c-.92 0-2.14-.16-3.68-.5a20.3 20.3 0 00-2.86-.49c-.55 0-.98.22-1.27.66H610v-8.58h.88c.58 2.57 1.28 4.38 2.09 5.45a5.86 5.86 0 004.9 2.25c1.38 0 2.5-.36 3.32-1.07a3.63 3.63 0 001.24-2.89c0-1.65-.96-3.02-2.86-4.12l-3.2-1.82c-2.34-1.32-4-2.58-4.97-3.8a6.4 6.4 0 01-1.46-4.12c0-1.98.7-3.6 2.12-4.87a7.73 7.73 0 015.36-1.9c1.21 0 2.35.18 3.41.53 1.06.35 1.7.52 1.93.52m15.82 14.52h-.71c-.37-4.47-.77-8.41-1.21-11.82-.44-3.41-.77-5.9-1-7.48-.21-1.58-.32-2.9-.32-3.96 0-1.29.25-2.31.77-3.08a2.44 2.44 0 012.14-1.16c1.95 0 2.92 1.47 2.92 4.4 0 1.03-.11 2.31-.33 3.85a594.4 594.4 0 00-1 7.46c-.43 3.42-.85 7.36-1.26 11.8m-2.42 5.16a2.86 2.86 0 012.1-.88c.8 0 1.5.3 2.08.88.59.59.88 1.3.88 2.15a2.7 2.7 0 01-.85 2.06c-.57.53-1.3.8-2.17.8-.8 0-1.49-.27-2.04-.8a2.74 2.74 0 01-.82-2.06c0-.85.27-1.56.82-2.15M824.86 246.79c0-5.72 1.75-10.37 5.27-13.94 3.52-3.58 7.9-5.37 13.15-5.37 2.35 0 4.55.3 6.6.91 2.05.6 3.25.9 3.58.9 1.2 0 1.97-.6 2.3-1.8h1.16l.5 12.42h-1.27c-2.02-6.82-5.96-10.23-11.82-10.23-4 0-7.18 1.49-9.55 4.46-2.36 2.97-3.54 6.95-3.54 11.93 0 3.2.4 5.95 1.23 8.28.83 2.33 1.94 4.09 3.33 5.28 1.4 1.2 2.83 2.05 4.32 2.58a14 14 0 004.75.8c4.33 0 8.42-1.85 12.27-5.55l.99.99a16.8 16.8 0 01-6.43 5.17 20.1 20.1 0 01-8.59 1.81c-5.42 0-9.82-1.7-13.2-5.11-3.37-3.41-5.05-7.92-5.05-13.53m43.6-1v13.26c0 1.9.22 3.14.66 3.69.44.55 1.47.91 3.08 1.1v.82h-11.88v-.82c1.58-.22 2.56-.59 2.95-1.1.38-.52.57-1.74.57-3.69v-25.9c0-1.18-.15-1.95-.46-2.31-.31-.37-1-.55-2.07-.55-.25 0-.56.03-.93.1v-.87c2.6-.7 5.2-1.5 7.8-2.42l.28.16v16.72a12.9 12.9 0 013.77-3.54 8.62 8.62 0 014.32-1.08c4.5 0 6.76 2.92 6.76 8.75v10.94c0 1.9.18 3.11.53 3.6.34.5 1.27.9 2.77 1.19v.82h-11.66v-.82c1.58-.15 2.6-.52 3.06-1.1.46-.59.68-1.82.68-3.69v-10.89c0-3.88-1.37-5.83-4.12-5.83-1.06 0-2.06.27-3 .8-.93.53-1.97 1.42-3.1 2.67m24.01 3.63c.08 2.3.39 4.3.94 5.97a8.82 8.82 0 002.14 3.73 8.39 8.39 0 002.67 1.76c.9.35 1.84.53 2.83.53a8 8 0 004.6-1.32c1.3-.88 2.6-2.37 3.93-4.46l.88.39c-1.14 2.97-2.71 5.24-4.73 6.82a10.95 10.95 0 01-6.93 2.36c-3.15 0-5.66-1.1-7.5-3.32-1.86-2.22-2.79-5.22-2.79-9 0-4.07 1.08-7.34 3.22-9.81a10.45 10.45 0 018.28-3.72c2.79 0 4.95.84 6.49 2.5 1.54 1.67 2.51 4.2 2.91 7.57h-16.94m.11-1.76h11.22c-.36-2.39-.93-4.04-1.7-4.95-.77-.92-2-1.38-3.69-1.38-3.3 0-5.24 2.11-5.83 6.33m19.51-17.27v-.88c3.63-.88 6.55-1.69 8.75-2.42l.22.1v32.84c0 1.5.25 2.49.74 2.94.5.46 1.63.75 3.39.86v.82H912.2v-.82c1.73-.15 2.87-.48 3.41-1 .55-.5.83-1.5.83-2.96v-26.24c0-1.28-.17-2.16-.5-2.64-.33-.47-.93-.71-1.81-.71-.73 0-1.41.03-2.03.1M1026.72 240.46c.03 0 .33-.18.88-.55h.6l.22 7.48h-.82c-.63-2.45-1.4-4.2-2.31-5.22a4.77 4.77 0 00-3.74-1.54c-1.25 0-2.27.35-3.05 1.04-.79.7-1.19 1.6-1.19 2.7 0 1.57.79 2.82 2.37 3.74l5.94 3.52a11.7 11.7 0 013.55 3 6.5 6.5 0 01-1.21 8.5 7.85 7.85 0 01-5.48 2.08c-.91 0-2.14-.16-3.68-.5-1.54-.32-2.5-.49-2.86-.49-.55 0-.97.22-1.27.66h-.71v-8.58h.88c.58 2.57 1.28 4.38 2.09 5.45a5.85 5.85 0 004.89 2.25 4.9 4.9 0 003.33-1.07 3.61 3.61 0 001.24-2.89c0-1.65-.96-3.02-2.86-4.12l-3.19-1.82c-2.35-1.32-4.01-2.58-4.98-3.8a6.42 6.42 0 01-1.46-4.12c0-1.98.71-3.6 2.12-4.87a7.73 7.73 0 015.36-1.9c1.21 0 2.35.18 3.41.53 1.07.35 1.71.52 1.93.52m10.76 8.97c.08 2.3.39 4.3.94 5.97a8.82 8.82 0 002.14 3.73 8.38 8.38 0 002.67 1.76c.9.35 1.84.53 2.83.53 1.76 0 3.3-.44 4.6-1.32 1.3-.88 2.61-2.37 3.93-4.46l.88.39c-1.14 2.97-2.71 5.24-4.73 6.82a10.96 10.96 0 01-6.93 2.36c-3.15 0-5.66-1.1-7.51-3.32-1.85-2.22-2.78-5.22-2.78-9 0-4.07 1.08-7.34 3.22-9.81a10.47 10.47 0 018.28-3.72c2.79 0 4.95.84 6.49 2.5 1.54 1.67 2.51 4.2 2.91 7.57h-16.94m.11-1.76h11.22c-.36-2.39-.93-4.04-1.7-4.95-.77-.92-2-1.38-3.69-1.38-3.3 0-5.24 2.11-5.83 6.33m20.34 11.66c0-.66.07-1.28.22-1.84.15-.57.4-1.1.77-1.6s.72-.94 1.05-1.35c.33-.4.82-.81 1.48-1.23l1.65-1.05c.44-.27 1.11-.6 2.01-.99l2.06-.88 2.26-.9 2.25-.89v-3.35c0-3.05-1.39-4.57-4.18-4.57a4.8 4.8 0 00-2.8.8c-.77.53-1.16 1.16-1.16 1.9 0 .3.05.7.14 1.2.09.52.14.85.14 1 0 .62-.25 1.16-.75 1.62-.49.46-1.07.69-1.73.69-.62 0-1.17-.24-1.65-.72a2.25 2.25 0 01-.71-1.65c0-1.72.89-3.18 2.66-4.37a11.56 11.56 0 016.58-1.79c3 0 5.07.73 6.21 2.17 1.14 1.45 1.71 3.66 1.71 6.63v10.73c0 1.2.12 2.04.35 2.5.24.46.67.69 1.3.69a3.9 3.9 0 002.42-1.05v1.43a10.19 10.19 0 01-2.51 2.18c-.71.38-1.53.57-2.44.57-1.14 0-1.97-.3-2.51-.93-.53-.63-.87-1.65-1.01-3.08-3.16 2.67-5.83 4.01-8.03 4.01a5.6 5.6 0 01-4.16-1.65 5.8 5.8 0 01-1.62-4.23m13.75-1.43v-7.98c-3.3 1.21-5.61 2.39-6.93 3.52a5.26 5.26 0 00-1.98 4.13c0 1.5.37 2.62 1.1 3.35a3.3 3.3 0 002.37 1.1c1.24 0 2.58-.42 4.01-1.26.59-.33.97-.68 1.16-1.05.18-.36.27-.97.27-1.81M1113.3 227.2v16.84a7.04 7.04 0 012.97-3.36 8.75 8.75 0 0111.58 2.12c1.85 2.3 2.77 5.12 2.77 8.5 0 3.92-1.23 7.22-3.71 9.9a11.98 11.98 0 01-9.16 4.01c-2.2 0-4.26-.37-6.18-1.13-1.93-.75-2.89-1.54-2.89-2.39v-28.54c0-1.14-.18-1.9-.52-2.26-.35-.36-1.08-.55-2.18-.55-.4 0-.71.02-.93.06v-.88c2.82-.7 5.48-1.5 7.97-2.42l.28.1m0 19.75v13.86c0 .7.53 1.31 1.59 1.84 1.07.54 2.31.8 3.74.8 2.28 0 4.04-.84 5.28-2.53 1.25-1.68 1.87-4.05 1.87-7.1 0-3.33-.63-6-1.89-8-1.27-2-2.98-3-5.15-3-1.43 0-2.69.43-3.79 1.27-1.1.85-1.65 1.8-1.65 2.86m45.1 14.96v.77a65.5 65.5 0 00-7.54 2.48l-.22-.11v-4.57l-.96 1c-.53.54-.91.92-1.13 1.12-.22.2-.59.51-1.12.94-.54.42-1 .72-1.41.9a9.62 9.62 0 01-3.41.77 6.3 6.3 0 01-4.84-1.95c-1.21-1.3-1.81-3.03-1.81-5.2V244.2c0-1.28-.24-2.17-.72-2.66-.47-.5-1.37-.78-2.69-.86v-.77h8.03v17.93c0 1.14.38 2.12 1.15 2.95a3.64 3.64 0 002.75 1.23c.41 0 .88-.05 1.43-.16a9.44 9.44 0 001.9-.63 4.16 4.16 0 002.56-3.99V244.3c0-1.35-.25-2.25-.74-2.7-.5-.43-1.61-.69-3.33-.76v-.94h8.69v18.87c0 1.28.2 2.12.6 2.53.41.4 1.25.6 2.53.6h.28m1.09-19.14v-.93c2.71-.8 5.24-1.63 7.59-2.48l.38.11v4.35a25.6 25.6 0 014.43-3.55c1.08-.6 2.26-.9 3.55-.9 2.01 0 3.6.72 4.75 2.16 1.16 1.45 1.74 3.48 1.74 6.08v12.6c0 1.35.22 2.26.66 2.72.44.46 1.33.76 2.69.9v.83h-11.44v-.82c1.39-.11 2.32-.48 2.78-1.1.46-.63.69-1.8.69-3.52v-11.5c0-3.55-1.34-5.33-4.02-5.33-.92 0-1.76.2-2.53.63a17.3 17.3 0 00-3.13 2.5v15.46c0 .99.25 1.68.77 2.09.51.4 1.46.66 2.86.77v.82h-11.66v-.82c1.39-.11 2.31-.43 2.75-.96.44-.54.66-1.6.66-3.17v-13.64c0-1.35-.15-2.28-.44-2.78-.3-.49-.83-.74-1.6-.74-.7 0-1.19.08-1.48.22m41.08-2.3c.03 0 .33-.2.88-.56h.6l.22 7.48h-.82c-.63-2.45-1.4-4.2-2.31-5.22a4.77 4.77 0 00-3.74-1.54c-1.25 0-2.27.35-3.06 1.04-.78.7-1.18 1.6-1.18 2.7 0 1.57.79 2.82 2.37 3.74l5.94 3.52c1.65.99 2.83 1.99 3.54 3a6.48 6.48 0 01-1.21 8.5 7.8 7.8 0 01-5.47 2.08c-.92 0-2.14-.16-3.68-.5-1.54-.32-2.5-.49-2.86-.49-.55 0-.98.22-1.27.66h-.71v-8.58h.88c.58 2.57 1.28 4.38 2.09 5.45a5.85 5.85 0 004.89 2.25c1.39 0 2.5-.36 3.33-1.07a3.64 3.64 0 001.24-2.89c0-1.65-.96-3.02-2.86-4.12l-3.19-1.82c-2.35-1.32-4.01-2.58-4.98-3.8a6.42 6.42 0 01-1.46-4.12c0-1.98.71-3.6 2.12-4.87a7.73 7.73 0 015.36-1.9c1.21 0 2.35.18 3.41.53 1.06.35 1.71.52 1.93.52M1235.8 245.8v13.25c0 1.9.22 3.14.66 3.69.44.55 1.47.91 3.08 1.1v.82h-11.88v-.82c1.58-.22 2.56-.59 2.94-1.1.39-.52.58-1.74.58-3.69v-25.9c0-1.18-.15-1.95-.47-2.31-.31-.37-1-.55-2.06-.55-.26 0-.57.03-.93.1v-.87c2.6-.7 5.2-1.5 7.81-2.42l.27.16v16.72a12.89 12.89 0 013.77-3.54 8.6 8.6 0 014.32-1.08c4.51 0 6.76 2.92 6.76 8.75v10.94c0 1.9.18 3.11.52 3.6.35.5 1.28.9 2.78 1.19v.82h-11.66v-.82c1.58-.15 2.6-.52 3.05-1.1.46-.59.69-1.82.69-3.69v-10.89c0-3.88-1.37-5.83-4.12-5.83-1.07 0-2.07.27-3 .8-.94.53-1.97 1.42-3.11 2.67m32.22-6.44c3.52 0 6.41 1.18 8.69 3.52 2.27 2.35 3.41 5.32 3.41 8.91 0 3.82-1.18 7-3.52 9.57a11.33 11.33 0 01-8.69 3.85c-3.45 0-6.32-1.23-8.61-3.71-2.29-2.48-3.44-5.56-3.44-9.27 0-3.77 1.13-6.86 3.38-9.26 2.26-2.4 5.18-3.6 8.78-3.6m-7.21 10.17c0 3.92.72 7.26 2.15 10 1.43 2.76 3.3 4.13 5.61 4.13 2.05 0 3.66-.88 4.84-2.64 1.17-1.76 1.76-4.2 1.76-7.31 0-3.78-.74-6.86-2.2-9.24-1.47-2.39-3.36-3.58-5.67-3.58-1.94 0-3.51.8-4.7 2.37-1.19 1.57-1.79 3.66-1.79 6.27m34.92-9.63v1.76h-5.55v15.73c0 1.73.22 2.98.66 3.77.44.79 1.17 1.18 2.2 1.18 1.13 0 2.23-.64 3.3-1.92l.71.6c-1.76 2.79-3.96 4.18-6.6 4.18-3.26 0-4.89-2.33-4.89-6.98v-16.56h-2.92c-.15-.1-.22-.24-.22-.38a.6.6 0 01.17-.44c.11-.11.32-.27.63-.47.31-.2.69-.48 1.13-.82.44-.35 1.04-.99 1.81-1.9.77-.92 1.61-2.02 2.53-3.3.59-.85.95-1.36 1.1-1.54.26 0 .39.24.39.71v6.38h5.55m11.71 15.07h-.71c-.37-4.47-.77-8.41-1.21-11.82-.44-3.41-.77-5.9-.99-7.48-.22-1.58-.33-2.9-.33-3.96 0-1.29.26-2.31.77-3.08a2.43 2.43 0 012.14-1.16c1.95 0 2.92 1.47 2.92 4.4 0 1.03-.11 2.31-.33 3.85a594.4 594.4 0 00-.99 7.46 339.5 339.5 0 00-1.27 11.8m-2.42 5.16a2.87 2.87 0 012.09-.88c.81 0 1.51.3 2.09.88.59.59.88 1.3.88 2.15 0 .84-.28 1.53-.85 2.06s-1.29.8-2.17.8c-.81 0-1.49-.27-2.04-.8a2.74 2.74 0 01-.82-2.06c0-.85.27-1.56.82-2.15M1511.18 246.79c0-5.72 1.76-10.37 5.28-13.94 3.52-3.58 7.9-5.37 13.14-5.37 2.35 0 4.55.3 6.6.91 2.06.6 3.25.9 3.58.9 1.21 0 1.98-.6 2.31-1.8h1.15l.5 12.42h-1.27c-2.01-6.82-5.95-10.23-11.82-10.23-4 0-7.18 1.49-9.54 4.46-2.37 2.97-3.55 6.95-3.55 11.93 0 3.2.41 5.95 1.24 8.28.82 2.33 1.93 4.09 3.32 5.28 1.4 1.2 2.84 2.05 4.32 2.58 1.49.54 3.07.8 4.76.8 4.33 0 8.41-1.85 12.26-5.55l.99.99a16.75 16.75 0 01-6.43 5.17 20.08 20.08 0 01-8.58 1.81c-5.43 0-9.83-1.7-13.2-5.11-3.37-3.41-5.06-7.92-5.06-13.53m43.61-1v13.26c0 1.9.22 3.14.66 3.69.44.55 1.46.91 3.08 1.1v.82h-11.88v-.82c1.57-.22 2.56-.59 2.94-1.1.39-.52.58-1.74.58-3.69v-25.9c0-1.18-.16-1.95-.47-2.31-.31-.37-1-.55-2.06-.55-.26 0-.57.03-.94.1v-.87c2.61-.7 5.21-1.5 7.81-2.42l.28.16v16.72a12.77 12.77 0 013.77-3.54 8.59 8.59 0 014.31-1.08c4.51 0 6.77 2.92 6.77 8.75v10.94c0 1.9.17 3.11.52 3.6.35.5 1.27.9 2.78 1.19v.82h-11.66v-.82c1.57-.15 2.59-.52 3.05-1.1.46-.59.69-1.82.69-3.69v-10.89c0-3.88-1.38-5.83-4.13-5.83-1.06 0-2.06.27-2.99.8-.94.53-1.98 1.42-3.11 2.67m24.02 3.63c.07 2.3.38 4.3.93 5.97a8.83 8.83 0 002.15 3.73 8.38 8.38 0 002.67 1.76 7.7 7.7 0 002.83.53 8 8 0 004.59-1.32c1.3-.88 2.61-2.37 3.93-4.46l.88.39c-1.13 2.97-2.71 5.24-4.73 6.82a10.92 10.92 0 01-6.93 2.36c-3.15 0-5.65-1.1-7.5-3.32-1.86-2.22-2.78-5.22-2.78-9 0-4.07 1.07-7.34 3.22-9.81a10.44 10.44 0 018.27-3.72c2.79 0 4.95.84 6.49 2.5 1.54 1.67 2.51 4.2 2.92 7.57h-16.94m.11-1.76h11.22c-.37-2.39-.94-4.04-1.71-4.95-.77-.92-2-1.38-3.68-1.38-3.3 0-5.25 2.11-5.83 6.33m19.51-17.27v-.88c3.63-.88 6.54-1.69 8.74-2.42l.22.1v32.84c0 1.5.25 2.49.75 2.94.49.46 1.62.75 3.38.86v.82h-12.98v-.82c1.72-.15 2.86-.48 3.41-1 .55-.5.82-1.5.82-2.96v-26.24c0-1.28-.16-2.16-.49-2.64-.33-.47-.94-.71-1.82-.71-.73 0-1.41.03-2.03.1M1749.29 240.46c.03 0 .33-.18.88-.55h.6l.22 7.48h-.82c-.63-2.45-1.4-4.2-2.31-5.22a4.77 4.77 0 00-3.74-1.54c-1.25 0-2.27.35-3.05 1.04-.79.7-1.19 1.6-1.19 2.7 0 1.57.79 2.82 2.37 3.74l5.94 3.52a11.7 11.7 0 013.55 3 6.5 6.5 0 01-1.21 8.5 7.85 7.85 0 01-5.48 2.08c-.91 0-2.14-.16-3.68-.5-1.54-.32-2.5-.49-2.86-.49-.55 0-.97.22-1.27.66h-.71v-8.58h.88c.58 2.57 1.28 4.38 2.09 5.45a5.85 5.85 0 004.89 2.25 4.9 4.9 0 003.33-1.07 3.61 3.61 0 001.24-2.89c0-1.65-.96-3.02-2.86-4.12l-3.19-1.82c-2.35-1.32-4.01-2.58-4.98-3.8a6.42 6.42 0 01-1.46-4.12c0-1.98.71-3.6 2.12-4.87a7.73 7.73 0 015.36-1.9c1.21 0 2.35.18 3.41.53 1.07.35 1.71.52 1.93.52m10.77 8.97c.07 2.3.38 4.3.93 5.97a8.83 8.83 0 002.15 3.73 8.34 8.34 0 002.66 1.76c.9.35 1.85.53 2.84.53a8 8 0 004.59-1.32c1.3-.88 2.61-2.37 3.93-4.46l.88.39c-1.14 2.97-2.71 5.24-4.73 6.82a10.96 10.96 0 01-6.93 2.36c-3.15 0-5.66-1.1-7.51-3.32-1.85-2.22-2.77-5.22-2.77-9 0-4.07 1.07-7.34 3.21-9.81a10.47 10.47 0 018.28-3.72c2.79 0 4.95.84 6.49 2.5 1.54 1.67 2.51 4.2 2.92 7.57h-16.94m.11-1.76h11.22c-.37-2.39-.94-4.04-1.71-4.95-.77-.92-2-1.38-3.68-1.38-3.3 0-5.25 2.11-5.83 6.33m20.33 11.66c0-.66.07-1.28.22-1.84.15-.57.4-1.1.77-1.6s.72-.94 1.05-1.35c.33-.4.82-.81 1.48-1.23l1.65-1.05c.44-.27 1.11-.6 2.01-.99l2.06-.88 2.26-.9 2.25-.89v-3.35c0-3.05-1.39-4.57-4.18-4.57a4.8 4.8 0 00-2.8.8c-.77.53-1.16 1.16-1.16 1.9 0 .3.05.7.14 1.2.09.52.14.85.14 1 0 .62-.25 1.16-.75 1.62-.49.46-1.07.69-1.73.69-.62 0-1.17-.24-1.65-.72a2.25 2.25 0 01-.71-1.65c0-1.72.89-3.18 2.66-4.37a11.56 11.56 0 016.58-1.79c3 0 5.07.73 6.21 2.17 1.14 1.45 1.71 3.66 1.71 6.63v10.73c0 1.2.12 2.04.35 2.5.24.46.67.69 1.3.69a3.9 3.9 0 002.42-1.05v1.43a10.19 10.19 0 01-2.51 2.18c-.71.38-1.53.57-2.44.57-1.14 0-1.97-.3-2.51-.93-.53-.63-.87-1.65-1.01-3.08-3.16 2.67-5.83 4.01-8.03 4.01a5.6 5.6 0 01-4.16-1.65 5.8 5.8 0 01-1.62-4.23m13.75-1.43v-7.98c-3.3 1.21-5.61 2.39-6.93 3.52a5.26 5.26 0 00-1.98 4.13c0 1.5.37 2.62 1.1 3.35a3.3 3.3 0 002.37 1.1c1.24 0 2.58-.42 4.01-1.26.59-.33.97-.68 1.16-1.05.18-.36.27-.97.27-1.81M1834.42 227.2v16.84a7.04 7.04 0 012.97-3.36 8.73 8.73 0 014.67-1.32 8.53 8.53 0 016.9 3.44c1.86 2.3 2.78 5.12 2.78 8.5 0 3.92-1.24 7.22-3.71 9.9a12 12 0 01-9.16 4.01c-2.2 0-4.26-.37-6.19-1.13-1.92-.75-2.88-1.54-2.88-2.39v-28.54c0-1.14-.18-1.9-.53-2.26-.34-.36-1.07-.55-2.17-.55-.4 0-.71.02-.93.06v-.88c2.82-.7 5.48-1.5 7.97-2.42l.28.1m0 19.75v13.86c0 .7.53 1.31 1.59 1.84 1.06.54 2.31.8 3.74.8a6.2 6.2 0 005.28-2.53c1.25-1.68 1.87-4.05 1.87-7.1 0-3.33-.63-6-1.9-8-1.26-2-2.98-3-5.14-3-1.43 0-2.69.43-3.79 1.27-1.1.85-1.65 1.8-1.65 2.86m45.1 14.96v.77c-2.86.77-5.38 1.6-7.54 2.48l-.22-.11v-4.57l-.96 1a19.54 19.54 0 01-2.26 2.06c-.53.42-1 .72-1.4.9-.4.19-.92.36-1.54.52-.62.17-1.25.25-1.87.25a6.29 6.29 0 01-4.84-1.95c-1.21-1.3-1.81-3.03-1.81-5.2V244.2c0-1.28-.24-2.17-.72-2.66-.48-.5-1.37-.78-2.69-.86v-.77h8.03v17.93c0 1.14.38 2.12 1.15 2.95a3.64 3.64 0 002.75 1.23c.4 0 .88-.05 1.43-.16a9.65 9.65 0 001.9-.63c.71-.32 1.32-.81 1.81-1.49.5-.68.75-1.51.75-2.5V244.3c0-1.35-.25-2.25-.75-2.7-.49-.43-1.6-.69-3.32-.76v-.94h8.69v18.87c0 1.28.2 2.12.6 2.53.4.4 1.25.6 2.53.6h.28m1.08-19.14v-.93c2.72-.8 5.25-1.63 7.59-2.48l.39.11v4.35a25.22 25.22 0 014.43-3.55c1.08-.6 2.26-.9 3.54-.9 2.02 0 3.61.72 4.76 2.16 1.16 1.45 1.73 3.48 1.73 6.08v12.6c0 1.35.22 2.26.66 2.72.44.46 1.34.76 2.7.9v.83h-11.44v-.82c1.39-.11 2.32-.48 2.78-1.1.45-.63.68-1.8.68-3.52v-11.5c0-3.55-1.33-5.33-4.01-5.33-.92 0-1.76.2-2.53.63-.77.42-1.82 1.26-3.14 2.5v15.46c0 .99.26 1.68.77 2.09.52.4 1.47.66 2.86.77v.82h-11.66v-.82c1.4-.11 2.31-.43 2.75-.96.44-.54.66-1.6.66-3.17v-13.64c0-1.35-.14-2.28-.44-2.78-.29-.49-.82-.74-1.59-.74-.7 0-1.19.08-1.49.22m41.08-2.3c.04 0 .33-.2.88-.56h.61l.22 7.48h-.83c-.62-2.45-1.39-4.2-2.31-5.22a4.74 4.74 0 00-3.74-1.54c-1.24 0-2.26.35-3.05 1.04-.79.7-1.18 1.6-1.18 2.7 0 1.57.79 2.82 2.36 3.74l5.94 3.52c1.65.99 2.84 1.99 3.55 3a6.5 6.5 0 01-1.21 8.5 7.8 7.8 0 01-5.47 2.08c-.92 0-2.15-.16-3.69-.5a20.2 20.2 0 00-2.86-.49c-.55 0-.97.22-1.26.66h-.72v-8.58h.88c.59 2.57 1.29 4.38 2.09 5.45a5.88 5.88 0 004.9 2.25c1.39 0 2.5-.36 3.33-1.07a3.64 3.64 0 001.23-2.89c0-1.65-.95-3.02-2.86-4.12l-3.19-1.82c-2.34-1.32-4-2.58-4.97-3.8a6.42 6.42 0 01-1.46-4.12c0-1.98.71-3.6 2.12-4.87a7.73 7.73 0 015.36-1.9c1.21 0 2.35.18 3.41.53 1.06.35 1.7.52 1.92.52m15.83 14.52h-.71c-.37-4.47-.77-8.41-1.21-11.82-.44-3.41-.77-5.9-.99-7.48-.22-1.58-.33-2.9-.33-3.96 0-1.29.25-2.31.77-3.08a2.42 2.42 0 012.14-1.16c1.94 0 2.92 1.47 2.92 4.4 0 1.03-.11 2.31-.33 3.85a594.4 594.4 0 00-.99 7.46c-.44 3.42-.87 7.36-1.27 11.8m-2.42 5.16a2.85 2.85 0 012.09-.88c.81 0 1.5.3 2.09.88.59.59.88 1.3.88 2.15 0 .84-.28 1.53-.85 2.06s-1.29.8-2.17.8c-.81 0-1.49-.27-2.04-.8a2.74 2.74 0 01-.82-2.06c0-.85.27-1.56.82-2.15M216.23 700.86a9.47 9.47 0 01-4.18 8.11 14.3 14.3 0 01-4.34 1.8c-1.84.47-3.96.7-6.38.7-1.1 0-2.37-.05-3.8-.16v10.01c0 2.02.32 3.33.97 3.93.64.6 2.04.95 4.2 1.02v1.05h-15.4v-1.05c2.1-.18 3.39-.58 3.88-1.18.5-.6.74-2.06.74-4.37V696.9c0-1.98-.25-3.24-.77-3.8-.51-.54-1.8-.93-3.85-1.15v-1.04h14.52c1.65 0 3.25.15 4.79.46 1.54.32 3.07.82 4.6 1.52a8.7 8.7 0 013.65 3.08 8.53 8.53 0 011.37 4.9m-18.7-6.06v14.3c1.29.11 2.33.17 3.14.17 6.38 0 9.57-2.7 9.57-8.09 0-2.82-.88-4.9-2.64-6.24-1.76-1.34-4.5-2-8.2-2-.73 0-1.22.12-1.48.38-.26.25-.39.75-.39 1.48m24.03 10.9c-.8 0-1.58.05-2.31.16v-.83c2.57-.73 5.4-1.74 8.53-3.02l.22.16v19.53c0 1.98.22 3.23.68 3.76.46.54 1.59.88 3.38 1.02v.83h-13.03v-.83c1.9-.1 3.1-.44 3.6-.99s.75-1.81.75-3.8v-12.75c0-1.21-.14-2.06-.42-2.53-.27-.48-.74-.72-1.4-.72m3.63-15.95c.8 0 1.49.28 2.03.83.56.55.83 1.2.83 1.98 0 .8-.28 1.47-.83 2-.54.54-1.22.8-2.03.8-.77 0-1.42-.27-1.95-.82a2.75 2.75 0 01-.8-1.98c0-.77.28-1.43.82-1.98.56-.55 1.2-.83 1.93-.83M366.94 705.7v-.88c2.31-.7 4.95-1.63 7.93-2.8l.32.1v4.24c2.35-2.9 5-4.34 7.93-4.34 2.67 0 4.87 1.1 6.6 3.3 1.72 2.2 2.58 5 2.58 8.41 0 4-1.1 7.35-3.33 10.07-2.22 2.71-4.96 4.07-8.22 4.07a7.65 7.65 0 01-2.94-.5 8.98 8.98 0 01-2.62-1.87v8.64c0 1.72.3 2.83.88 3.32.6.5 1.91.76 3.97.8v1h-13.31v-.94c1.6-.15 2.65-.46 3.13-.94.48-.48.71-1.43.71-2.86v-25.74c0-1.28-.14-2.13-.44-2.53-.29-.4-.9-.6-1.81-.6-.59 0-1.05.01-1.38.05m8.25 3.25v13.53c0 .8.64 1.61 1.9 2.42a7.05 7.05 0 003.83 1.2c1.97 0 3.58-.94 4.8-2.83 1.24-1.88 1.85-4.35 1.85-7.4 0-3.18-.61-5.74-1.84-7.67-1.23-1.92-2.87-2.88-4.93-2.88-1.28 0-2.53.4-3.76 1.2-1.23.81-1.85 1.62-1.85 2.43m21.9-3.25c-.81 0-1.58.06-2.31.17v-.83c2.56-.73 5.4-1.74 8.52-3.02l.22.16v19.53c0 1.98.23 3.23.69 3.76.46.54 1.58.88 3.38 1.02v.83h-13.03v-.83c1.9-.1 3.1-.44 3.6-.99s.74-1.81.74-3.8v-12.75c0-1.21-.14-2.06-.41-2.53-.28-.48-.75-.72-1.4-.72m3.63-15.95c.8 0 1.48.28 2.03.83.55.55.82 1.2.82 1.98 0 .8-.27 1.47-.82 2-.55.54-1.23.8-2.04.8-.76 0-1.42-.27-1.95-.82a2.75 2.75 0 01-.8-1.98c0-.77.28-1.43.83-1.98.55-.55 1.2-.83 1.92-.83m8.8 15.68v-.94c2.7-.8 5.24-1.63 7.59-2.47l.38.1v4.35a25.53 25.53 0 014.43-3.55c1.08-.6 2.26-.9 3.55-.9 2.01 0 3.6.72 4.75 2.17 1.16 1.45 1.74 3.47 1.74 6.08v12.6c0 1.35.22 2.26.66 2.71.44.46 1.33.76 2.7.91v.83h-11.45v-.83c1.4-.1 2.32-.48 2.78-1.1.46-.62.69-1.8.69-3.52v-11.5c0-3.55-1.34-5.33-4.02-5.33-.92 0-1.76.21-2.53.63a17.3 17.3 0 00-3.13 2.5v15.46c0 1 .25 1.69.77 2.1.5.4 1.46.65 2.86.76v.83h-11.66v-.83c1.39-.1 2.3-.43 2.75-.96.44-.53.66-1.59.66-3.16v-13.64c0-1.36-.15-2.29-.44-2.78-.3-.5-.83-.74-1.6-.74-.7 0-1.2.07-1.48.22m29.64 18.92c0-.7.24-1.34.74-1.93.5-.58 1.88-1.94 4.15-4.07-1.83-.92-3.14-1.94-3.93-3.08a7.36 7.36 0 01-1.18-4.29c0-2.5.89-4.6 2.66-6.35a8.96 8.96 0 016.52-2.61c1.43 0 2.96.3 4.6.9 1.63.6 2.97.91 4.04.91h4.23v2.15h-4.56a11.4 11.4 0 011.04 4.62 8 8 0 01-2.56 6.16 8.58 8.58 0 01-6.02 2.36c-.44 0-1.48-.09-3.13-.27a5.2 5.2 0 00-2.2 1.48c-.74.77-1.1 1.43-1.1 1.98 0 .88 1.43 1.38 4.29 1.49l7.1.33a7.5 7.5 0 014.83 1.7 5.3 5.3 0 011.82 4.18c0 2.64-1.52 4.85-4.54 6.63a18.93 18.93 0 01-9.76 2.67c-2.6 0-4.84-.53-6.71-1.57-1.87-1.05-2.8-2.3-2.8-3.77 0-1.02.4-2.04 1.23-3.05.82-1 2.2-2.23 4.15-3.66a9.11 9.11 0 01-2.3-1.43c-.41-.4-.61-.9-.61-1.48m4.07 3.08a23.44 23.44 0 00-2.2 2.91c-.33.59-.5 1.2-.5 1.82 0 1.2.74 2.18 2.2 2.91 1.47.73 3.41 1.1 5.83 1.1 3.12 0 5.63-.5 7.54-1.48 1.9-1 2.86-2.28 2.86-3.85 0-1-.52-1.69-1.54-2.1-1.03-.4-2.79-.6-5.28-.6-3.7 0-6.68-.24-8.91-.71m10-14.69c0-.62-.07-1.37-.21-2.25-.15-.88-.4-1.88-.77-3a6.56 6.56 0 00-1.76-2.8 4.13 4.13 0 00-2.92-1.13c-1.28 0-2.28.46-3 1.37a6.03 6.03 0 00-1.07 3.8c0 3.15.59 5.44 1.76 6.87 1.18 1.43 2.46 2.15 3.85 2.15a3.7 3.7 0 003.03-1.35c.73-.9 1.1-2.12 1.1-3.66M492.2 708.45v13.26c0 1.9.22 3.13.66 3.68.44.55 1.47.92 3.08 1.1v.83h-11.88v-.83c1.58-.22 2.56-.59 2.94-1.1.39-.51.58-1.74.58-3.68v-25.9c0-1.18-.16-1.95-.47-2.32-.3-.37-1-.55-2.06-.55-.26 0-.57.04-.94.11v-.88c2.6-.7 5.21-1.5 7.81-2.42l.28.17v16.72a12.9 12.9 0 013.77-3.55 8.62 8.62 0 014.31-1.07c4.52 0 6.77 2.91 6.77 8.74v10.95c0 1.9.17 3.1.52 3.6s1.28.89 2.78 1.18v.83h-11.66v-.83c1.58-.14 2.6-.51 3.05-1.1.46-.59.69-1.81.69-3.68v-10.9c0-3.88-1.38-5.82-4.13-5.82-1.06 0-2.06.26-3 .8-.93.53-1.96 1.42-3.1 2.66m32.21-6.43c3.52 0 6.42 1.17 8.7 3.52 2.27 2.34 3.4 5.31 3.4 8.9 0 3.82-1.17 7.01-3.51 9.58a11.3 11.3 0 01-8.7 3.85c-3.44 0-6.31-1.24-8.6-3.72-2.3-2.47-3.44-5.56-3.44-9.26 0-3.78 1.13-6.87 3.38-9.27 2.26-2.4 5.18-3.6 8.77-3.6m-7.2 10.17c0 3.92.71 7.26 2.14 10.01 1.43 2.75 3.3 4.13 5.62 4.13 2.05 0 3.66-.88 4.83-2.64 1.18-1.76 1.77-4.2 1.77-7.32 0-3.77-.74-6.86-2.2-9.24-1.47-2.38-3.36-3.57-5.67-3.57-1.94 0-3.51.79-4.7 2.36-1.2 1.58-1.79 3.67-1.79 6.27m34.92-9.62v1.76h-5.55v15.73c0 1.72.21 2.98.65 3.76.44.8 1.18 1.19 2.2 1.19 1.14 0 2.24-.64 3.3-1.93l.72.6c-1.76 2.8-3.96 4.19-6.6 4.19-3.26 0-4.9-2.33-4.9-6.99v-16.55h-2.91c-.15-.11-.22-.24-.22-.39a.6.6 0 01.16-.44c.12-.1.33-.26.64-.47.3-.2.68-.47 1.13-.82.43-.35 1.04-.98 1.81-1.9.77-.91 1.61-2.01 2.53-3.3.59-.84.95-1.36 1.1-1.54.26 0 .38.24.38.72v6.38h5.56m11.71 15.07h-.71c-.37-4.48-.77-8.42-1.21-11.83-.44-3.4-.77-5.9-1-7.48-.21-1.58-.32-2.9-.32-3.96 0-1.28.25-2.3.77-3.08a2.44 2.44 0 012.14-1.15c1.95 0 2.92 1.46 2.92 4.4 0 1.02-.11 2.3-.33 3.85a594.4 594.4 0 00-1 7.45c-.43 3.43-.85 7.36-1.26 11.8m-2.42 5.17a2.85 2.85 0 012.1-.88c.8 0 1.5.29 2.08.88.59.58.88 1.3.88 2.14a2.7 2.7 0 01-.85 2.06c-.57.54-1.3.8-2.17.8-.8 0-1.49-.26-2.04-.8a2.74 2.74 0 01-.82-2.06c0-.84.27-1.56.82-2.14M761.26 709.44c0-5.72 1.76-10.37 5.28-13.94 3.52-3.58 7.9-5.36 13.14-5.36 2.35 0 4.55.3 6.6.9 2.06.6 3.25.91 3.58.91 1.2 0 1.98-.6 2.3-1.81h1.16l.5 12.43h-1.27c-2.01-6.82-5.95-10.23-11.82-10.23-4 0-7.18 1.48-9.54 4.45-2.37 2.97-3.55 6.95-3.55 11.94 0 3.19.41 5.95 1.24 8.27.82 2.33 1.93 4.1 3.32 5.28 1.4 1.2 2.84 2.06 4.32 2.59a14 14 0 004.76.8c4.33 0 8.41-1.85 12.26-5.56l1 1a16.78 16.78 0 01-6.44 5.16 20.11 20.11 0 01-8.58 1.82c-5.43 0-9.83-1.7-13.2-5.12-3.38-3.4-5.06-7.92-5.06-13.53m43.6-.99v13.26c0 1.9.23 3.13.67 3.68.44.55 1.46.92 3.08 1.1v.83h-11.88v-.83c1.57-.22 2.55-.59 2.94-1.1.38-.51.58-1.74.58-3.68v-25.9c0-1.18-.16-1.95-.47-2.32-.31-.37-1-.55-2.06-.55-.26 0-.57.04-.94.11v-.88c2.6-.7 5.2-1.5 7.81-2.42l.28.17v16.72a12.9 12.9 0 013.76-3.55 8.62 8.62 0 014.32-1.07c4.51 0 6.77 2.91 6.77 8.74v10.95c0 1.9.17 3.1.52 3.6s1.27.89 2.78 1.18v.83h-11.66v-.83c1.57-.14 2.6-.51 3.05-1.1.46-.59.69-1.81.69-3.68v-10.9c0-3.88-1.38-5.82-4.13-5.82-1.06 0-2.06.26-3 .8-.93.53-1.97 1.42-3.1 2.66m24.02 3.63c.07 2.31.38 4.3.93 5.97a8.82 8.82 0 002.15 3.74 8.4 8.4 0 002.66 1.76c.9.35 1.85.52 2.84.52a8 8 0 004.59-1.32c1.3-.88 2.61-2.36 3.93-4.45l.88.38c-1.13 2.97-2.71 5.25-4.73 6.82a10.94 10.94 0 01-6.93 2.37c-3.15 0-5.65-1.11-7.5-3.33-1.86-2.22-2.78-5.22-2.78-9 0-4.06 1.07-7.34 3.22-9.81a10.45 10.45 0 018.27-3.71c2.79 0 4.95.83 6.5 2.5 1.53 1.67 2.5 4.19 2.9 7.56H828.9m.1-1.76h11.23c-.37-2.38-.94-4.03-1.7-4.95-.78-.91-2-1.37-3.7-1.37-3.3 0-5.24 2.1-5.82 6.32m19.5-17.27v-.88c3.64-.88 6.55-1.68 8.75-2.42l.22.11v32.84c0 1.5.25 2.48.75 2.94.5.46 1.62.74 3.38.85v.83h-12.98v-.83c1.72-.14 2.86-.48 3.4-.99.56-.51.83-1.5.83-2.97V696.3c0-1.29-.16-2.17-.5-2.64-.32-.48-.93-.72-1.8-.72-.74 0-1.42.04-2.04.11M968.79 703.12c.04 0 .33-.19.88-.55h.6l.23 7.48h-.83c-.62-2.46-1.4-4.2-2.31-5.23a4.76 4.76 0 00-3.74-1.54c-1.25 0-2.26.35-3.05 1.05-.8.7-1.19 1.6-1.19 2.7 0 1.57.8 2.82 2.37 3.73l5.94 3.52c1.65 1 2.83 2 3.55 3a6.5 6.5 0 01-1.21 8.5 7.82 7.82 0 01-5.48 2.09c-.91 0-2.14-.17-3.68-.5a20.3 20.3 0 00-2.86-.5c-.55 0-.97.23-1.26.67h-.72v-8.58h.88c.59 2.56 1.28 4.38 2.09 5.44a5.86 5.86 0 004.9 2.26c1.39 0 2.5-.36 3.32-1.08a3.63 3.63 0 001.24-2.88c0-1.65-.95-3.03-2.86-4.13l-3.19-1.81c-2.35-1.32-4-2.59-4.98-3.8a6.4 6.4 0 01-1.45-4.12c0-1.98.7-3.6 2.11-4.87a7.73 7.73 0 015.37-1.9c1.2 0 2.34.18 3.4.52 1.07.35 1.71.53 1.93.53m10.77 8.96c.07 2.31.38 4.3.93 5.97a8.82 8.82 0 002.15 3.74 8.39 8.39 0 002.66 1.76c.9.35 1.85.52 2.84.52a8 8 0 004.59-1.32c1.3-.88 2.61-2.36 3.93-4.45l.88.38c-1.13 2.97-2.71 5.25-4.73 6.82a10.94 10.94 0 01-6.93 2.37c-3.15 0-5.65-1.11-7.5-3.33-1.86-2.22-2.78-5.22-2.78-9 0-4.06 1.07-7.34 3.21-9.81a10.45 10.45 0 018.28-3.71c2.79 0 4.95.83 6.5 2.5 1.53 1.67 2.5 4.19 2.9 7.56h-16.93m.1-1.76h11.23c-.37-2.38-.94-4.03-1.7-4.95-.78-.91-2-1.37-3.7-1.37-3.3 0-5.24 2.1-5.82 6.32m20.33 11.66c0-.66.08-1.27.22-1.84.15-.57.41-1.1.77-1.6.37-.5.72-.94 1.05-1.34.33-.4.82-.82 1.48-1.24l1.65-1.05c.44-.27 1.11-.6 2.01-.99l2.06-.88 2.26-.9 2.25-.88v-3.36c0-3.04-1.39-4.56-4.18-4.56a4.8 4.8 0 00-2.8.8c-.77.53-1.16 1.16-1.16 1.9 0 .29.05.69.14 1.2.09.51.14.85.14 1 0 .62-.25 1.16-.74 1.61a2.5 2.5 0 01-1.74.7c-.62 0-1.17-.25-1.65-.72a2.29 2.29 0 01-.71-1.65c0-1.73.89-3.18 2.67-4.38a11.5 11.5 0 016.57-1.78c3 0 5.08.72 6.21 2.17 1.14 1.45 1.71 3.66 1.71 6.63v10.72c0 1.21.12 2.05.36 2.5.23.46.66.7 1.29.7.77 0 1.57-.36 2.42-1.05v1.43a10.36 10.36 0 01-2.5 2.17c-.72.38-1.54.58-2.45.58-1.14 0-1.97-.32-2.5-.94-.54-.62-.88-1.65-1.02-3.08-3.16 2.68-5.83 4.02-8.03 4.02a5.56 5.56 0 01-4.15-1.65 5.76 5.76 0 01-1.63-4.24m13.75-1.43v-7.97c-3.3 1.2-5.61 2.38-6.93 3.52a5.26 5.26 0 00-1.98 4.12c0 1.5.37 2.62 1.1 3.36.74.73 1.52 1.1 2.37 1.1 1.24 0 2.58-.42 4.01-1.27.59-.33.97-.68 1.16-1.04.18-.37.27-.98.27-1.82M1058.91 689.86v16.83a7.04 7.04 0 012.97-3.35 8.76 8.76 0 014.68-1.32 8.53 8.53 0 016.9 3.43c1.85 2.3 2.78 5.13 2.78 8.5 0 3.92-1.24 7.22-3.72 9.9a11.95 11.95 0 01-9.15 4.02c-2.2 0-4.27-.38-6.19-1.13-1.93-.75-2.89-1.55-2.89-2.4V695.8c0-1.13-.17-1.89-.52-2.25-.35-.37-1.07-.55-2.17-.55-.41 0-.72.01-.94.05v-.88a75.7 75.7 0 007.98-2.42l.27.11m0 19.75v13.86c0 .7.53 1.3 1.6 1.84 1.06.53 2.31.8 3.74.8 2.27 0 4.03-.85 5.28-2.53 1.24-1.69 1.87-4.06 1.87-7.1 0-3.34-.64-6-1.9-8-1.27-2-2.98-3-5.14-3-1.43 0-2.7.42-3.8 1.27-1.1.84-1.65 1.8-1.65 2.86m45.1 14.96v.77c-2.86.77-5.37 1.6-7.53 2.47l-.22-.1v-4.57l-.97.99c-.53.55-.9.92-1.12 1.12-.22.2-.6.52-1.13.94-.53.42-1 .72-1.4.9-.41.19-.92.36-1.54.53-.63.16-1.25.25-1.87.25a6.29 6.29 0 01-4.84-1.96c-1.21-1.3-1.82-3.03-1.82-5.2v-13.85c0-1.29-.24-2.18-.71-2.67-.48-.5-1.38-.78-2.7-.85v-.77h8.03v17.93c0 1.13.39 2.11 1.16 2.94a3.63 3.63 0 002.75 1.24c.4 0 .88-.06 1.43-.17a9.37 9.37 0 001.89-.63 4.16 4.16 0 002.56-3.99v-12.92c0-1.36-.25-2.26-.74-2.7-.5-.44-1.6-.7-3.33-.77v-.93h8.69v18.86c0 1.29.2 2.13.61 2.53.4.4 1.24.6 2.53.6h.27m1.09-19.13v-.94c2.71-.8 5.24-1.63 7.59-2.47l.38.1v4.35a25.6 25.6 0 014.43-3.55c1.08-.6 2.27-.9 3.55-.9 2.02 0 3.6.72 4.76 2.17 1.15 1.45 1.73 3.47 1.73 6.08v12.6c0 1.35.22 2.26.66 2.71.44.46 1.34.76 2.69.91v.83h-11.44v-.83c1.4-.1 2.32-.48 2.78-1.1.46-.62.69-1.8.69-3.52v-11.5c0-3.55-1.34-5.33-4.02-5.33a5.2 5.2 0 00-2.53.63 17.3 17.3 0 00-3.13 2.5v15.46c0 1 .26 1.69.77 2.1.51.4 1.47.65 2.86.76v.83h-11.66v-.83c1.39-.1 2.31-.43 2.75-.96.44-.53.66-1.59.66-3.16v-13.64c0-1.36-.15-2.29-.44-2.78-.29-.5-.83-.74-1.6-.74-.69 0-1.19.07-1.48.22m41.08-2.31c.04 0 .33-.19.88-.55h.61l.22 7.48h-.83c-.62-2.46-1.39-4.2-2.31-5.23a4.76 4.76 0 00-3.74-1.54c-1.25 0-2.26.35-3.05 1.05-.79.7-1.18 1.6-1.18 2.7 0 1.57.78 2.82 2.36 3.73l5.94 3.52a11.7 11.7 0 013.55 3 6.5 6.5 0 01-1.21 8.5 7.83 7.83 0 01-5.47 2.09c-.92 0-2.15-.17-3.69-.5a20.2 20.2 0 00-2.86-.5c-.55 0-.97.23-1.26.67h-.72v-8.58h.88c.59 2.56 1.28 4.38 2.09 5.44a5.87 5.87 0 004.9 2.26c1.39 0 2.5-.36 3.32-1.08a3.61 3.61 0 001.24-2.88c0-1.65-.95-3.03-2.86-4.13l-3.19-1.81c-2.35-1.32-4.01-2.59-4.98-3.8a6.41 6.41 0 01-1.45-4.12c0-1.98.7-3.6 2.11-4.87a7.74 7.74 0 015.37-1.9c1.21 0 2.34.18 3.41.52 1.06.35 1.7.53 1.92.53M1184.96 708.45v13.26c0 1.9.22 3.13.66 3.68.44.55 1.47.92 3.08 1.1v.83h-11.88v-.83c1.58-.22 2.56-.59 2.94-1.1.39-.51.58-1.74.58-3.68v-25.9c0-1.18-.16-1.95-.47-2.32-.31-.37-1-.55-2.06-.55-.26 0-.57.04-.94.11v-.88c2.61-.7 5.21-1.5 7.81-2.42l.28.17v16.72a12.89 12.89 0 013.77-3.55 8.59 8.59 0 014.31-1.07c4.51 0 6.77 2.91 6.77 8.74v10.95c0 1.9.17 3.1.52 3.6s1.28.89 2.78 1.18v.83h-11.66v-.83c1.58-.14 2.59-.51 3.05-1.1.46-.59.69-1.81.69-3.68v-10.9c0-3.88-1.38-5.82-4.13-5.82-1.06 0-2.06.26-2.99.8-.94.53-1.97 1.42-3.11 2.66m32.21-6.43c3.52 0 6.42 1.17 8.69 3.52 2.28 2.34 3.41 5.31 3.41 8.9 0 3.82-1.17 7.01-3.52 9.58a11.3 11.3 0 01-8.69 3.85c-3.44 0-6.31-1.24-8.6-3.72-2.3-2.47-3.44-5.56-3.44-9.26 0-3.78 1.13-6.87 3.38-9.27 2.26-2.4 5.18-3.6 8.77-3.6m-7.2 10.17c0 3.92.71 7.26 2.14 10.01 1.43 2.75 3.3 4.13 5.61 4.13a5.5 5.5 0 004.84-2.64c1.18-1.76 1.76-4.2 1.76-7.32 0-3.77-.73-6.86-2.2-9.24-1.46-2.38-3.35-3.57-5.66-3.57-1.94 0-3.51.79-4.7 2.36-1.2 1.58-1.79 3.67-1.79 6.27m34.92-9.62v1.76h-5.56v15.73c0 1.72.22 2.98.66 3.76.44.8 1.18 1.19 2.2 1.19 1.14 0 2.24-.64 3.3-1.93l.72.6c-1.76 2.8-3.96 4.19-6.6 4.19-3.26 0-4.9-2.33-4.9-6.99v-16.55h-2.91c-.15-.11-.22-.24-.22-.39a.6.6 0 01.16-.44c.11-.1.32-.26.64-.47.31-.2.68-.47 1.12-.82.44-.35 1.05-.98 1.82-1.9.77-.91 1.61-2.01 2.53-3.3.59-.84.95-1.36 1.1-1.54.26 0 .38.24.38.72v6.38h5.56m11.71 15.07h-.71a263.7 263.7 0 00-1.21-11.83c-.44-3.4-.77-5.9-.99-7.48-.22-1.58-.33-2.9-.33-3.96 0-1.28.25-2.3.77-3.08a2.42 2.42 0 012.14-1.15c1.94 0 2.92 1.46 2.92 4.4 0 1.02-.11 2.3-.33 3.85a594.4 594.4 0 00-.99 7.45c-.44 3.43-.87 7.36-1.27 11.8m-2.42 5.17a2.85 2.85 0 012.09-.88c.81 0 1.5.29 2.09.88.59.58.88 1.3.88 2.14 0 .84-.28 1.53-.85 2.06-.57.54-1.29.8-2.17.8-.81 0-1.49-.26-2.04-.8a2.74 2.74 0 01-.82-2.06c0-.84.27-1.56.82-2.14M1468.13 709.44c0-5.72 1.76-10.37 5.28-13.94 3.52-3.58 7.9-5.36 13.15-5.36 2.34 0 4.54.3 6.6.9 2.05.6 3.24.91 3.57.91 1.21 0 1.98-.6 2.31-1.81h1.16l.49 12.43h-1.26c-2.02-6.82-5.96-10.23-11.83-10.23-4 0-7.18 1.48-9.54 4.45-2.37 2.97-3.55 6.95-3.55 11.94 0 3.19.41 5.95 1.24 8.27.82 2.33 1.93 4.1 3.33 5.28a13.83 13.83 0 004.31 2.59c1.49.53 3.07.8 4.76.8 4.33 0 8.42-1.85 12.27-5.56l.99 1a16.84 16.84 0 01-6.44 5.16 20.08 20.08 0 01-8.58 1.82c-5.43 0-9.83-1.7-13.2-5.12-3.37-3.4-5.06-7.92-5.06-13.53m43.61-.99v13.26c0 1.9.22 3.13.66 3.68.44.55 1.47.92 3.08 1.1v.83h-11.88v-.83c1.58-.22 2.56-.59 2.94-1.1.39-.51.58-1.74.58-3.68v-25.9c0-1.18-.16-1.95-.47-2.32-.31-.37-1-.55-2.06-.55-.26 0-.57.04-.94.11v-.88c2.61-.7 5.21-1.5 7.81-2.42l.28.17v16.72a12.89 12.89 0 013.77-3.55 8.59 8.59 0 014.31-1.07c4.51 0 6.77 2.91 6.77 8.74v10.95c0 1.9.17 3.1.52 3.6s1.28.89 2.78 1.18v.83h-11.66v-.83c1.58-.14 2.59-.51 3.05-1.1.46-.59.69-1.81.69-3.68v-10.9c0-3.88-1.38-5.82-4.13-5.82-1.06 0-2.06.26-2.99.8-.94.53-1.97 1.42-3.11 2.66m24.02 3.63c.07 2.31.38 4.3.93 5.97a8.83 8.83 0 002.15 3.74 8.38 8.38 0 002.67 1.76 7.7 7.7 0 002.83.52 8 8 0 004.59-1.32c1.3-.88 2.61-2.36 3.93-4.45l.88.38c-1.13 2.97-2.71 5.25-4.73 6.82a10.91 10.91 0 01-6.93 2.37c-3.15 0-5.65-1.11-7.5-3.33-1.86-2.22-2.78-5.22-2.78-9 0-4.06 1.07-7.34 3.22-9.81a10.44 10.44 0 018.27-3.71c2.79 0 4.95.83 6.49 2.5s2.52 4.19 2.92 7.56h-16.94m.11-1.76h11.22c-.37-2.38-.94-4.03-1.71-4.95-.77-.91-1.99-1.37-3.68-1.37-3.3 0-5.24 2.1-5.83 6.32m19.51-17.27v-.88c3.63-.88 6.55-1.68 8.75-2.42l.22.11v32.84c0 1.5.24 2.48.74 2.94.49.46 1.62.74 3.38.85v.83h-12.98v-.83c1.72-.14 2.86-.48 3.41-.99.55-.51.83-1.5.83-2.97V696.3c0-1.29-.17-2.17-.5-2.64-.33-.48-.93-.72-1.81-.72-.74 0-1.42.04-2.04.11M1714.02 703.12c.04 0 .33-.19.88-.55h.61l.22 7.48h-.83c-.62-2.46-1.39-4.2-2.31-5.23a4.74 4.74 0 00-3.74-1.54c-1.24 0-2.26.35-3.05 1.05-.79.7-1.18 1.6-1.18 2.7 0 1.57.79 2.82 2.36 3.73l5.94 3.52a11.7 11.7 0 013.55 3 6.5 6.5 0 01-1.21 8.5 7.83 7.83 0 01-5.47 2.09c-.92 0-2.15-.17-3.69-.5a20.2 20.2 0 00-2.86-.5c-.55 0-.97.23-1.26.67h-.72v-8.58h.88c.59 2.56 1.29 4.38 2.09 5.44a5.88 5.88 0 004.9 2.26c1.39 0 2.5-.36 3.32-1.08a3.61 3.61 0 001.24-2.88c0-1.65-.95-3.03-2.86-4.13l-3.19-1.81c-2.34-1.32-4-2.59-4.98-3.8a6.41 6.41 0 01-1.45-4.12c0-1.98.7-3.6 2.11-4.87a7.76 7.76 0 015.37-1.9c1.21 0 2.34.18 3.41.52 1.06.35 1.7.53 1.92.53m10.77 8.96c.07 2.31.38 4.3.93 5.97a8.83 8.83 0 002.15 3.74 8.38 8.38 0 002.67 1.76 7.7 7.7 0 002.83.52 8 8 0 004.59-1.32c1.3-.88 2.61-2.36 3.93-4.45l.88.38c-1.13 2.97-2.71 5.25-4.73 6.82a10.91 10.91 0 01-6.93 2.37c-3.15 0-5.65-1.11-7.5-3.33-1.86-2.22-2.78-5.22-2.78-9 0-4.06 1.07-7.34 3.22-9.81a10.44 10.44 0 018.27-3.71c2.79 0 4.95.83 6.49 2.5s2.52 4.19 2.92 7.56h-16.94m.11-1.76h11.22c-.37-2.38-.94-4.03-1.71-4.95-.77-.91-1.99-1.37-3.68-1.37-3.3 0-5.24 2.1-5.83 6.32m20.33 11.66c0-.66.08-1.27.22-1.84.15-.57.41-1.1.77-1.6.37-.5.72-.94 1.05-1.34.33-.4.82-.82 1.48-1.24l1.65-1.05c.44-.27 1.11-.6 2.01-.99l2.06-.88 2.26-.9 2.25-.88v-3.36c0-3.04-1.39-4.56-4.18-4.56a4.8 4.8 0 00-2.8.8c-.77.53-1.16 1.16-1.16 1.9 0 .29.05.69.14 1.2.09.51.14.85.14 1 0 .62-.25 1.16-.74 1.61a2.5 2.5 0 01-1.74.7c-.62 0-1.17-.25-1.65-.72a2.29 2.29 0 01-.71-1.65c0-1.73.89-3.18 2.67-4.38a11.55 11.55 0 016.57-1.78c3.01 0 5.08.72 6.21 2.17 1.14 1.45 1.71 3.66 1.71 6.63v10.72c0 1.21.12 2.05.36 2.5.24.46.67.7 1.29.7.77 0 1.58-.36 2.42-1.05v1.43a10.18 10.18 0 01-2.5 2.17 5.1 5.1 0 01-2.45.58c-1.14 0-1.97-.32-2.5-.94-.53-.62-.87-1.65-1.02-3.08-3.15 2.68-5.83 4.02-8.03 4.02a5.56 5.56 0 01-4.15-1.65 5.8 5.8 0 01-1.63-4.24m13.75-1.43v-7.97c-3.3 1.2-5.61 2.38-6.93 3.52a5.26 5.26 0 00-1.98 4.12c0 1.5.37 2.62 1.1 3.36.74.73 1.53 1.1 2.37 1.1 1.25 0 2.58-.42 4.01-1.27a2.7 2.7 0 001.16-1.04c.18-.37.27-.98.27-1.82M1803.14 689.86v16.83a7.04 7.04 0 012.97-3.35 8.75 8.75 0 014.67-1.32 8.55 8.55 0 016.91 3.43c1.85 2.3 2.77 5.13 2.77 8.5 0 3.92-1.23 7.22-3.71 9.9a11.98 11.98 0 01-9.16 4.02c-2.2 0-4.26-.38-6.18-1.13-1.93-.75-2.89-1.55-2.89-2.4V695.8c0-1.13-.17-1.89-.52-2.25-.35-.37-1.08-.55-2.18-.55-.4 0-.71.01-.93.05v-.88a75.5 75.5 0 007.97-2.42l.28.11m0 19.75v13.86c0 .7.53 1.3 1.59 1.84 1.07.53 2.31.8 3.74.8 2.28 0 4.04-.85 5.28-2.53 1.25-1.69 1.87-4.06 1.87-7.1 0-3.34-.63-6-1.89-8-1.27-2-2.98-3-5.15-3-1.43 0-2.69.42-3.79 1.27-1.1.84-1.65 1.8-1.65 2.86m45.1 14.96v.77a65.5 65.5 0 00-7.54 2.47l-.22-.1v-4.57l-.96.99c-.53.55-.91.92-1.13 1.12-.22.2-.59.52-1.12.94a6.85 6.85 0 01-2.95 1.43c-.62.16-1.24.25-1.87.25a6.3 6.3 0 01-4.84-1.96c-1.21-1.3-1.81-3.03-1.81-5.2v-13.85c0-1.29-.24-2.18-.72-2.67-.47-.5-1.37-.78-2.69-.85v-.77h8.03v17.93c0 1.13.38 2.11 1.15 2.94a3.64 3.64 0 002.75 1.24c.41 0 .88-.06 1.43-.17a9.44 9.44 0 001.9-.63 4.16 4.16 0 002.56-3.99v-12.92c0-1.36-.25-2.26-.74-2.7-.5-.44-1.61-.7-3.33-.77v-.93h8.69v18.86c0 1.29.2 2.13.6 2.53.41.4 1.25.6 2.53.6h.28m1.09-19.13v-.94c2.71-.8 5.24-1.63 7.59-2.47l.38.1v4.35a25.6 25.6 0 014.43-3.55c1.08-.6 2.26-.9 3.55-.9 2.01 0 3.6.72 4.75 2.17 1.16 1.45 1.74 3.47 1.74 6.08v12.6c0 1.35.22 2.26.66 2.71.44.46 1.34.76 2.69.91v.83h-11.44v-.83c1.4-.1 2.32-.48 2.78-1.1.46-.62.69-1.8.69-3.52v-11.5c0-3.55-1.34-5.33-4.02-5.33a5.2 5.2 0 00-2.53.63 17.3 17.3 0 00-3.13 2.5v15.46c0 1 .25 1.69.77 2.1.51.4 1.46.65 2.86.76v.83h-11.66v-.83c1.39-.1 2.31-.43 2.75-.96.44-.53.66-1.59.66-3.16v-13.64c0-1.36-.15-2.29-.44-2.78-.3-.5-.83-.74-1.6-.74-.69 0-1.19.07-1.48.22m41.08-2.31c.03 0 .33-.19.88-.55h.6l.22 7.48h-.82c-.63-2.46-1.4-4.2-2.31-5.23a4.77 4.77 0 00-3.74-1.54c-1.25 0-2.27.35-3.06 1.05-.78.7-1.18 1.6-1.18 2.7 0 1.57.79 2.82 2.37 3.73l5.94 3.52c1.65 1 2.83 2 3.54 3a6.48 6.48 0 01-1.21 8.5 7.8 7.8 0 01-5.47 2.09c-.91 0-2.14-.17-3.68-.5-1.54-.33-2.5-.5-2.86-.5-.55 0-.97.23-1.27.67h-.71v-8.58h.88c.58 2.56 1.28 4.38 2.09 5.44a5.85 5.85 0 004.89 2.26c1.4 0 2.5-.36 3.33-1.08a3.64 3.64 0 001.24-2.88c0-1.65-.96-3.03-2.86-4.13l-3.19-1.81c-2.35-1.32-4.01-2.59-4.98-3.8a6.42 6.42 0 01-1.46-4.12c0-1.98.71-3.6 2.12-4.87a7.73 7.73 0 015.36-1.9c1.21 0 2.35.18 3.41.52 1.07.35 1.71.53 1.93.53m15.82 14.52h-.71a263.7 263.7 0 00-1.21-11.83c-.44-3.4-.77-5.9-.99-7.48-.22-1.58-.33-2.9-.33-3.96 0-1.28.26-2.3.77-3.08a2.43 2.43 0 012.14-1.15c1.95 0 2.92 1.46 2.92 4.4 0 1.02-.11 2.3-.33 3.85a594.4 594.4 0 00-.99 7.45 339.5 339.5 0 00-1.27 11.8m-2.42 5.17a2.87 2.87 0 012.09-.88c.81 0 1.51.29 2.09.88.59.58.88 1.3.88 2.14 0 .84-.28 1.53-.85 2.06-.57.54-1.29.8-2.17.8-.81 0-1.49-.26-2.04-.8a2.74 2.74 0 01-.82-2.06c0-.84.27-1.56.82-2.14"/>
  <path fill="none" stroke="#000" stroke-linejoin="bevel" stroke-width="3.75" d="M1663.98 248.12h20M959.53 248.12h20M365.05 248.12h20M898.77 710.78h20M1624.82 710.78h20M289.38 710.78h20"/>
  <path d="M289.27 104.6a5.46 5.46 0 01-1.66-4c0-1.57.56-2.9 1.66-4.01a5.46 5.46 0 014-1.66c1.57 0 2.9.55 4.01 1.66a5.46 5.46 0 011.66 4c0 1.56-.55 2.9-1.66 4a5.46 5.46 0 01-4 1.67c-1.57 0-2.9-.56-4-1.66M1588.2 129.6a5.45 5.45 0 01-1.66-4c0-1.57.55-2.9 1.66-4.01a5.46 5.46 0 014.01-1.66c1.56 0 2.89.55 4 1.66a5.44 5.44 0 011.66 4c0 1.57-.55 2.9-1.66 4a5.46 5.46 0 01-4 1.67c-1.57 0-2.9-.55-4.01-1.66M236.53 579.63a5.46 5.46 0 01-1.66-4c0-1.57.56-2.9 1.66-4.01a5.46 5.46 0 014-1.66c1.57 0 2.9.55 4.01 1.66a5.46 5.46 0 011.66 4c0 1.56-.55 2.9-1.66 4a5.46 5.46 0 01-4 1.67c-1.56 0-2.9-.56-4-1.66M1545.15 604.63a5.48 5.48 0 01-1.66-4c0-1.57.56-2.9 1.66-4.01a5.46 5.46 0 014.01-1.66c1.56 0 2.89.55 4 1.66a5.44 5.44 0 011.66 4c0 1.57-.55 2.9-1.66 4a5.46 5.46 0 01-4 1.67c-1.57 0-2.9-.56-4.01-1.66"/>
</svg>
